<svg width="78" height="82" viewBox="0 0 78 82" fill="none" xmlns="http://www.w3.org/2000/svg">
<path d="M38.7515 82H38.748C38.3412 82 37.959 81.7665 37.709 81.373L0.278067 22.2384C-0.142822 21.5746 -0.0794243 20.6254 0.424233 20.0524L17.693 0.432444C17.9378 0.153518 18.2583 0 18.5911 0H59.4085C59.7414 0 60.0619 0.153518 60.3049 0.432444L77.5754 20.0524C78.0808 20.6276 78.1425 21.5811 77.7163 22.2449L39.7905 81.3794C39.5405 81.7708 39.1583 81.9978 38.7533 81.9978L38.7515 82ZM3.1063 21.4233L38.7586 77.7469L74.8863 21.4146L58.8908 3.24333H19.1089L3.1063 21.4233Z" fill="white"/>
<path d="M66.2063 22.8633H1.32078C0.59171 22.8633 0 22.139 0 21.2417C0 20.3443 0.59171 19.62 1.32078 19.62H66.2063C66.9354 19.62 67.5271 20.3465 67.5271 21.2417C67.5271 22.1368 66.9354 22.8633 66.2063 22.8633Z" fill="white"/>
<path d="M38.7521 82C38.1904 82 37.6691 81.5567 37.4912 80.8626L29.4943 49.4694C29.276 48.6153 29.6652 47.705 30.3608 47.4369C31.0581 47.1688 31.7978 47.6466 32.0161 48.5007L40.013 79.894C40.2314 80.748 39.8422 81.6583 39.1466 81.9264C39.0145 81.9762 38.8824 82 38.7521 82Z" fill="white"/>
<path d="M27.9873 39.7481C27.4255 39.7481 26.9042 39.3048 26.7264 38.6108L24.3771 29.3867C24.1588 28.5327 24.548 27.6224 25.2436 27.3542C25.941 27.0861 26.6806 27.564 26.899 28.4181L29.2482 37.6421C29.4666 38.4962 29.0774 39.4065 28.3818 39.6746C28.2497 39.7243 28.1176 39.7481 27.9873 39.7481Z" fill="white"/>
<path d="M23.4886 22.8633C23.1611 22.8633 22.8318 22.7141 22.5764 22.4135C22.0481 21.7951 22.0305 20.7681 22.5342 20.1216L37.7971 0.501603C38.0436 0.183757 38.3853 0.00429308 38.741 -3.13581e-05C39.0932 -0.0108425 39.4419 0.170784 39.692 0.482143L55.4498 20.1021C55.9622 20.74 55.9569 21.767 55.4357 22.3962C54.9162 23.0254 54.0797 23.0168 53.5672 22.3789L38.7674 3.95034L24.4449 22.3616C24.186 22.6946 23.8373 22.8633 23.4904 22.8633H23.4886Z" fill="white"/>
<path d="M38.752 82C38.6164 82 38.479 81.974 38.3434 81.92C37.6496 81.6432 37.2692 80.7286 37.4946 79.8767L51.1022 28.4007C51.3276 27.5488 52.0725 27.0818 52.7664 27.3585C53.4602 27.6353 53.8406 28.5499 53.6152 29.4018L40.0076 80.8778C39.8262 81.5632 39.3085 82 38.752 82Z" fill="white"/>
</svg>
