<svg width="74" height="79" viewBox="0 0 74 79" fill="none" xmlns="http://www.w3.org/2000/svg">
<g clip-path="url(#clip0_420_520)">
<path d="M65.2801 4.48894C63.6023 2.45324 61.4775 1.06771 58.9036 0.425837C58.1219 0.230575 57.3152 0.139176 56.521 0H55.0677C54.9492 0.0207725 54.8307 0.0477768 54.7122 0.0581631C52.9637 0.207725 51.3192 0.708343 49.7973 1.57456C47.0592 3.13665 45.1527 5.40917 44.1381 8.39626C43.4021 10.567 43.2794 12.7647 43.9032 14.9936C44.5705 17.3804 45.5685 19.63 46.6745 21.834C49.2983 27.0604 52.3587 32.0312 55.6083 36.8879C55.6228 36.9086 55.6374 36.9294 55.654 36.9522C55.7247 37.0478 55.8702 37.0478 55.9388 36.9481C58.4275 33.2423 60.7893 29.4575 62.9515 25.5544C64.6106 22.561 66.1824 19.5241 67.2905 16.2753C67.6814 15.1286 68.0265 13.9633 68.0722 12.7481C68.1845 9.64884 67.2468 6.87986 65.2801 4.48894ZM62.9848 12.6525L56.8682 21.3812C56.6249 21.7281 56.2424 21.9503 55.8183 21.9877C55.7767 21.9919 55.7351 21.9919 55.6935 21.9919C55.3151 21.9919 54.9513 21.8423 54.681 21.5743L50.3108 17.208C49.7516 16.6492 49.7516 15.7414 50.3108 15.1826C50.8722 14.6239 51.7786 14.6239 52.34 15.1826L55.5002 18.3401L60.6354 11.0094C61.0907 10.3613 61.9847 10.2035 62.6334 10.6563C63.2821 11.1112 63.438 12.0044 62.9848 12.6525Z" fill="white"/>
<path d="M73.9667 40.4753C73.7505 35.2468 72.4386 30.2946 70.2598 25.841C69.7379 24.7733 69.1641 23.7326 68.5445 22.7272C68.0123 21.8631 67.4426 21.0239 66.8439 20.2075C65.9603 22.1788 64.9665 24.0567 63.9789 25.841H66.7524C69.1516 30.2261 70.6091 35.1949 70.8461 40.4753H59.8769C59.8125 38.1737 59.6171 35.9095 59.301 33.7055C58.5048 34.956 57.6752 36.2252 56.802 37.5256L56.748 37.5983C56.7064 37.6523 56.6606 37.698 56.6128 37.7416C56.6835 38.6452 56.7334 39.5571 56.7604 40.4753H38.5583V25.841H47.6063C47.0304 24.7899 46.4836 23.7555 45.9618 22.7272H38.5583V8.41702C39.972 8.60812 41.3588 9.06097 42.6997 9.761C42.812 9.19599 42.9617 8.6289 43.1551 8.06388C43.4316 7.2496 43.7705 6.48309 44.1696 5.76437C42.3442 5.405 40.4689 5.1765 38.5583 5.09757C38.0406 5.07264 37.5229 5.06433 36.999 5.06433C36.475 5.06433 35.9594 5.07264 35.4417 5.09757C22.7636 5.62519 11.7134 12.5528 5.45545 22.7272C4.83589 23.7326 4.26207 24.7733 3.74231 25.841C1.56137 30.2946 0.249487 35.2468 0.033265 40.4753C0.00831624 40.9925 0 41.5097 0 42.0311C0 42.5525 0.00831624 43.0718 0.033265 43.5891C0.249487 48.8175 1.56137 53.7697 3.74231 58.2233C4.26207 59.291 4.83589 60.3317 5.45545 61.3371C11.3434 70.9112 21.4746 77.6082 33.213 78.8047C33.949 78.8816 34.6933 78.9356 35.4417 78.9668C35.9594 78.9917 36.4771 79 36.999 79C37.5208 79 38.0406 78.9917 38.5583 78.9668C39.3067 78.9356 40.051 78.8816 40.787 78.8047C52.5254 77.6082 62.6566 70.9112 68.5445 61.3371C69.1641 60.3317 69.7379 59.291 70.2598 58.2233C72.4386 53.7697 73.7505 48.8175 73.9667 43.5891C73.9917 43.0718 74 42.5546 74 42.0311C74 41.5077 73.9917 40.9925 73.9667 40.4753ZM25.3978 10.2263C23.6472 11.8798 22.0235 13.928 20.5702 16.3438C19.3935 18.3068 18.3602 20.4443 17.4911 22.7272H9.18113C13.1376 17.0522 18.7885 12.6359 25.3978 10.2263ZM7.24761 25.841H16.4287C15.0586 30.3611 14.2686 35.3258 14.1231 40.4753H3.15393C3.39095 35.1949 4.84837 30.2261 7.24761 25.841ZM3.15393 43.5891H14.1106C14.2229 48.7323 14.9734 53.6928 16.3019 58.2233H7.24761C4.84837 53.8382 3.39095 48.8694 3.15393 43.5891ZM9.18113 61.3371H17.329C18.2334 63.78 19.3186 66.067 20.5702 68.1484C21.826 70.2361 23.2065 72.0516 24.6909 73.5742C18.3851 71.1106 12.9941 66.8107 9.18113 61.3371ZM35.4417 75.8488C34.8929 75.8239 34.3482 75.7865 33.8055 75.7346C29.8636 74.6232 26.1962 71.4554 23.2418 66.5469C22.273 64.937 21.4122 63.1921 20.6679 61.3371H35.4417V75.8488ZM35.4417 58.2233H19.5536C18.1419 53.7448 17.3456 48.7739 17.2271 43.5891H35.4417V58.2233ZM35.4417 40.4753H17.2396C17.3955 35.278 18.2354 30.303 19.6908 25.841H35.4417V40.4753ZM35.4417 22.7272H20.8447C21.5453 21.0343 22.3457 19.4327 23.2418 17.9475C26.6016 12.3659 30.8865 9.03396 35.4417 8.41702V22.7272ZM38.5583 43.5891H56.7729C56.6544 48.7739 55.856 53.7448 54.4444 58.2233H38.5583V43.5891ZM40.1945 75.7346C39.6518 75.7865 39.1071 75.8239 38.5583 75.8488V61.3371H53.3321C52.5878 63.1921 51.727 64.937 50.7582 66.5469C47.8038 71.4554 44.1364 74.6232 40.1945 75.7346ZM49.307 73.5742C50.7935 72.0516 52.174 70.2361 53.4298 68.1484C54.6814 66.067 55.7666 63.78 56.671 61.3371H64.8189C61.0059 66.8107 55.6149 71.1106 49.307 73.5742ZM66.7524 58.2233H57.6981C59.0266 53.6928 59.7771 48.7323 59.8894 43.5891H70.8461C70.6091 48.8694 69.1516 53.8382 66.7524 58.2233Z" fill="white"/>
</g>
<defs>
<clipPath id="clip0_420_520">
<rect width="74" height="79" fill="white"/>
</clipPath>
</defs>
</svg>
