<svg width="80" height="80" viewBox="0 0 80 80" fill="none" xmlns="http://www.w3.org/2000/svg">
<g clip-path="url(#clip0_411_334)">
<path d="M39.979 51.0461C37.8819 51.0461 35.8272 50.4468 34.0224 49.2866C28.898 45.9922 27.4103 39.1461 30.7067 34.025C32.3021 31.5451 34.7701 29.8336 37.6551 29.2093C40.5383 28.585 43.4945 29.119 45.9759 30.7133C51.1003 34.0077 52.588 40.8538 49.2935 45.9749C47.6962 48.4548 45.2302 50.1664 42.3451 50.7907C41.5589 50.9616 40.767 51.0461 39.9809 51.0461H39.979ZM40.0155 30.8766C39.3658 30.8766 38.7123 30.9458 38.0626 31.0879C35.6811 31.6046 33.6418 33.0165 32.3232 35.0661C29.6015 39.2959 30.8297 44.9511 35.0622 47.673C37.1131 48.9908 39.5542 49.4326 41.9357 48.9158C44.3172 48.3991 46.3565 46.9873 47.6751 44.9376C50.3968 40.7078 49.1686 35.0527 44.9342 32.3307C43.4426 31.3722 41.7454 30.8766 40.0136 30.8766H40.0155Z" fill="white"/>
<path d="M39.789 46.0479C39.4949 46.0479 39.2008 46.0268 38.9048 45.9865C36.0793 45.5869 34.1034 42.9649 34.5032 40.1412C34.6646 38.9963 35.2643 37.9821 36.1889 37.2867C37.1134 36.5913 38.2551 36.2974 39.4007 36.4588C40.3675 36.5952 41.2248 37.1004 41.813 37.8803C42.4011 38.6601 42.6491 39.6225 42.5126 40.5907C42.3954 41.4147 41.9648 42.1447 41.2998 42.646C40.6347 43.1474 39.814 43.3587 38.9875 43.2415C38.4627 43.1666 38.0956 42.6806 38.1706 42.1562C38.2455 41.6318 38.7299 41.2668 39.2566 41.3398C39.5737 41.3859 39.8889 41.3033 40.1427 41.1112C40.3983 40.9191 40.5636 40.6387 40.6078 40.3217C40.6732 39.8626 40.554 39.4055 40.2753 39.0366C39.9966 38.6659 39.5891 38.4258 39.1297 38.3624C38.4916 38.2721 37.8573 38.4354 37.3421 38.8234C36.827 39.2095 36.4945 39.7743 36.4042 40.412C36.1524 42.1869 37.394 43.8351 39.172 44.0867C40.3118 44.2481 41.4458 43.9561 42.3646 43.2646C43.2834 42.573 43.8792 41.5646 44.0388 40.4274C44.2483 38.9406 43.8677 37.4615 42.9643 36.2609C42.0609 35.0604 40.7443 34.2843 39.2566 34.0749C35.2874 33.516 31.6008 36.2859 31.0396 40.2545C30.9646 40.7789 30.4802 41.1458 29.9536 41.0709C29.4288 40.996 29.0617 40.51 29.1367 39.9856C29.8459 34.9701 34.5032 31.4644 39.5257 32.1732C41.5208 32.4556 43.2891 33.4967 44.5001 35.1065C45.711 36.7162 46.2242 38.7005 45.9436 40.6963C45.711 42.3425 44.8499 43.8005 43.5217 44.8013C42.43 45.6215 41.1306 46.0537 39.789 46.0537V46.0479Z" fill="white"/>
<path d="M39.938 74.5312C33.3855 74.5312 26.9599 72.6583 21.3166 69.0297C5.29972 58.7317 0.64822 37.3309 10.9507 21.324C15.9405 13.5693 23.6539 8.22339 32.6705 6.2679C41.6871 4.31242 50.9248 5.98361 58.6843 10.9722C74.7031 21.2702 79.3546 42.671 69.0522 58.6779C64.0624 66.4326 56.3489 71.7785 47.3323 73.734C44.874 74.268 42.3964 74.5312 39.9399 74.5312H39.938ZM22.8774 66.6074C29.9892 71.1792 38.458 72.7121 46.7192 70.9179C54.9823 69.1257 62.0518 64.2255 66.6245 57.1181C76.0659 42.4482 71.8027 22.8319 57.1216 13.3945C50.0098 8.82271 41.541 7.28983 33.2798 9.08395C25.0167 10.8762 17.9472 15.7764 13.3745 22.8837C3.9331 37.5537 8.19633 57.17 22.8774 66.6074Z" fill="white"/>
<path d="M39.9278 80.0004C32.3374 80.0004 24.895 77.8317 18.3579 73.6288C-0.198091 61.6999 -5.58576 36.9087 6.34668 18.3662C12.1284 9.38213 21.0623 3.18913 31.5071 0.924377C41.9499 -1.34037 52.6521 0.593981 61.6418 6.37399C80.1979 18.3047 85.5855 43.096 73.6531 61.6366C67.8714 70.6187 58.9374 76.8136 48.4927 79.0784C45.6441 79.6969 42.7744 80.0023 39.9278 80.0023V80.0004ZM19.9187 71.2065C28.2606 76.5697 38.1902 78.3657 47.8815 76.2623C57.5727 74.1609 65.8628 68.4116 71.2274 60.0768C82.3006 42.8712 77.3012 19.8664 60.0811 8.79433C51.7391 3.43116 41.8095 1.63511 32.1183 3.73851C22.427 5.83998 14.137 11.5873 8.77238 19.9221C-2.30088 37.1277 2.69852 60.1325 19.9187 71.2046V71.2065Z" fill="white"/>
<path d="M41.4711 7.75849C41.4422 7.79691 41.4134 7.83148 41.3827 7.86606L41.3384 7.91408C40.658 8.66132 39.9834 9.42968 39.4471 10.2864C39.153 10.7013 38.9281 11.1527 38.6782 11.5945C38.561 11.8193 38.4668 12.0536 38.3573 12.2822L38.1977 12.6299L38.067 12.9872C37.6922 13.9342 37.4577 14.9369 37.3116 15.9569C37.1636 16.9788 37.129 18.0257 37.204 19.0746C37.3405 21.1741 37.8652 23.2775 38.661 25.2829C39.4586 27.2883 40.4889 29.2265 41.7748 30.9957C40.3063 29.3687 39.0627 27.5304 38.0324 25.5691C37.0041 23.606 36.218 21.4814 35.8316 19.2398C35.6317 18.1199 35.5452 16.9712 35.5894 15.8148C35.6298 14.6603 35.7759 13.4943 36.0872 12.3648L36.1949 11.9384L36.3333 11.5215C36.4294 11.2449 36.512 10.9606 36.6197 10.6879C36.8484 10.1481 37.0618 9.59488 37.3462 9.08199C37.8652 8.02165 38.5399 7.05544 39.2395 6.11035L41.4691 7.75849H41.4711Z" fill="white"/>
<path d="M29.0142 9.65065C29.0027 9.69676 28.9892 9.74094 28.9738 9.78512L28.9508 9.84659C28.6086 10.7974 28.278 11.7637 28.1127 12.7606C27.9993 13.2562 27.9647 13.7595 27.9032 14.2628C27.8802 14.5144 27.8821 14.7679 27.8705 15.0215L27.8571 15.4018L27.8725 15.7822C27.8878 16.8003 28.0551 17.8164 28.3126 18.8153C28.5663 19.8161 28.9373 20.7977 29.4082 21.737C30.3385 23.6253 31.6283 25.3656 33.1314 26.9158C34.6364 28.464 36.3297 29.8605 38.1961 31.0035C36.2163 30.0622 34.3653 28.8386 32.6604 27.421C30.9574 25.9995 29.4198 24.3379 28.2031 22.4151C27.5899 21.4585 27.069 20.4289 26.6673 19.3435C26.2637 18.2621 25.9523 17.1287 25.8081 15.9666L25.7447 15.5305L25.712 15.0926C25.6947 14.8006 25.662 14.5067 25.6582 14.2128C25.664 13.6269 25.6486 13.0353 25.7159 12.4513C25.7889 11.2719 26.0426 10.1232 26.3271 8.98218L29.018 9.65065H29.0142Z" fill="white"/>
<path d="M18.2272 16.1625C18.2349 16.2086 18.2388 16.2547 18.2407 16.3008L18.2445 16.3661C18.2926 17.3746 18.3579 18.3946 18.5867 19.38C18.6712 19.8814 18.8308 20.3597 18.9672 20.8495C19.0422 21.0915 19.1421 21.324 19.2267 21.5621L19.3593 21.9194L19.5189 22.2652C19.9244 23.1988 20.4665 24.0747 21.0854 24.8988C21.7024 25.7267 22.4213 26.4912 23.2151 27.1789C24.797 28.5677 26.6557 29.6837 28.6374 30.5385C30.621 31.3914 32.7199 32.0368 34.8823 32.3788C32.693 32.2654 30.5133 31.8448 28.3971 31.1878C26.2809 30.527 24.2223 29.58 22.3617 28.2661C21.4295 27.6168 20.553 26.8638 19.7668 26.0167C18.9788 25.1715 18.258 24.2437 17.6794 23.2257L17.4545 22.8472L17.2566 22.4554C17.1278 22.1922 16.9855 21.9329 16.8702 21.664C16.6511 21.1203 16.4089 20.5786 16.2475 20.0139C15.865 18.8959 15.6574 17.7376 15.4844 16.5755L18.2272 16.1644V16.1625Z" fill="white"/>
<path d="M10.7585 26.3029C10.7835 26.3433 10.8047 26.3836 10.8239 26.4259L10.8527 26.4854C11.2833 27.3998 11.735 28.316 12.3231 29.1382C12.5941 29.5685 12.9248 29.9488 13.2381 30.3503C13.3995 30.5443 13.5802 30.721 13.7513 30.9092L14.0107 31.1878L14.2914 31.4452C15.0237 32.154 15.8598 32.7533 16.7478 33.2796C17.6358 33.8079 18.5911 34.2401 19.5887 34.5724C21.5819 35.2505 23.727 35.5713 25.8855 35.6039C28.044 35.6347 30.2314 35.4253 32.3592 34.9143C30.2929 35.6462 28.119 36.0919 25.9105 36.2935C23.702 36.4914 21.4378 36.405 19.2158 35.9036C18.1048 35.6597 17.0073 35.3004 15.9578 34.8164C14.9064 34.3381 13.8858 33.756 12.9593 33.0357L12.6057 32.7725L12.2732 32.4844C12.054 32.2904 11.8234 32.1041 11.612 31.9004C11.2006 31.4817 10.7701 31.0744 10.4049 30.6134C9.62257 29.7279 8.98828 28.7348 8.38281 27.7282L10.7585 26.2991V26.3029Z" fill="white"/>
<path d="M7.73901 38.5296C7.77745 38.5584 7.81205 38.5872 7.84665 38.6179L7.8947 38.6621C8.6424 39.3421 9.41124 40.0164 10.2685 40.5523C10.6837 40.8462 11.1354 41.0709 11.5775 41.3207C11.8023 41.4378 12.0368 41.532 12.2656 41.6414L12.6135 41.8009L12.971 41.9315C13.9186 42.3061 14.9219 42.5404 15.9426 42.6864C16.9651 42.8343 18.0127 42.8689 19.0621 42.794C21.163 42.6576 23.2677 42.1332 25.2744 41.3379C27.2811 40.5408 29.2205 39.5112 30.9907 38.2261C29.3627 39.6936 27.5233 40.9346 25.5608 41.9661C23.5964 42.9938 21.4705 43.7794 19.2274 44.1655C18.1069 44.3653 16.9574 44.4517 15.8003 44.4076C14.6451 44.3672 13.4784 44.2212 12.3482 43.9081L11.9215 43.8005L11.5044 43.6622C11.2276 43.5662 10.9432 43.4836 10.6702 43.376C10.1301 43.1474 9.57655 42.9342 9.06334 42.6499C8.00234 42.1313 7.03552 41.457 6.08984 40.7578L7.73901 38.5296Z" fill="white"/>
<path d="M9.63178 50.9809C9.67791 50.9924 9.72212 51.0058 9.76633 51.0212L9.82784 51.0442C10.7793 51.3862 11.7461 51.7166 12.7437 51.8818C13.2396 51.9951 13.7432 52.0297 14.2468 52.0911C14.4986 52.1142 14.7523 52.1123 15.006 52.1238L15.3866 52.1372L15.7671 52.1219C16.7859 52.1065 17.8027 51.9394 18.8022 51.682C19.8036 51.4284 20.7858 51.0577 21.7257 50.5871C23.6151 49.6574 25.3565 48.3684 26.9077 46.8663C28.455 45.3622 29.8543 43.6699 30.9979 41.8047C30.0561 43.7832 28.8317 45.6331 27.4132 47.3369C25.9908 49.0388 24.3282 50.5755 22.4042 51.7915C21.447 52.4042 20.4167 52.9248 19.3307 53.3263C18.2486 53.7297 17.1145 54.0409 15.9517 54.1849L15.5154 54.2483L15.0771 54.281C14.785 54.2983 14.4909 54.3309 14.1968 54.3348C13.6105 54.329 13.0185 54.3444 12.4342 54.2771C11.254 54.2041 10.1046 53.9506 8.96289 53.6663L9.63178 50.977V50.9809Z" fill="white"/>
<path d="M16.1484 61.759C16.1946 61.7514 16.2407 61.7475 16.2868 61.7456L16.3522 61.7418C17.3613 61.6937 18.3819 61.6284 19.368 61.3998C19.8696 61.3153 20.3482 61.1559 20.8384 61.0195C21.0806 60.9446 21.3131 60.8447 21.5515 60.7602L21.909 60.6276L22.255 60.4682C23.1891 60.0629 24.0656 59.5212 24.8902 58.9027C25.7186 58.286 26.4836 57.5676 27.1717 56.7743C28.5614 55.1934 29.6781 53.3359 30.5335 51.3554C31.3869 49.373 32.0327 47.2754 32.3749 45.1144C32.2615 47.3023 31.8405 49.4806 31.1832 51.5955C30.522 53.7104 29.5744 55.7677 28.2596 57.6272C27.61 58.5588 26.8565 59.4347 26.0088 60.2204C25.1631 61.008 24.2347 61.7283 23.216 62.3065L22.8374 62.5312L22.4453 62.7291C22.1819 62.8578 21.9224 62.9999 21.6534 63.1152C21.1094 63.3342 20.5674 63.5762 20.0023 63.7376C18.8836 64.1198 17.7246 64.3273 16.5617 64.5002L16.1504 61.759H16.1484Z" fill="white"/>
<path d="M26.2949 69.2256C26.3352 69.2006 26.3756 69.1795 26.4179 69.1603L26.4775 69.1315C27.3924 68.7012 28.3092 68.2498 29.1319 67.662C29.5624 67.3911 29.943 67.0607 30.3447 66.7476C30.5389 66.5863 30.7157 66.4057 30.9041 66.2347L31.1828 65.9754L31.4403 65.695C32.1496 64.9631 32.7493 64.1275 33.276 63.24C33.8045 62.3526 34.237 61.3979 34.5695 60.4009C35.248 58.409 35.569 56.2652 35.6017 54.108C35.6325 51.9509 35.4229 49.7649 34.9117 47.6384C35.644 49.7034 36.0899 51.8759 36.2917 54.0831C36.4897 56.2902 36.4032 58.553 35.9015 60.7736C35.6574 61.8839 35.298 62.9807 34.8136 64.0295C34.335 65.0803 33.7526 66.1003 33.0318 67.0261L32.7685 67.3796L32.4802 67.7119C32.2861 67.9309 32.0996 68.1614 31.8959 68.3727C31.4769 68.7838 31.0694 69.2141 30.6081 69.579C29.722 70.3608 28.7282 70.9947 27.7211 71.5998L26.291 69.2256H26.2949Z" fill="white"/>
<path d="M38.5283 72.2415C38.5571 72.2031 38.586 72.1685 38.6167 72.1339L38.6609 72.0859C39.3414 71.3387 40.016 70.5703 40.5523 69.7136C40.8464 69.2987 41.0712 68.8472 41.3211 68.4054C41.4384 68.1807 41.5326 67.9463 41.6421 67.7177L41.8017 67.3701L41.9324 67.0128C42.3072 66.0658 42.5417 65.0631 42.6877 64.043C42.8357 63.0211 42.8703 61.9742 42.7954 60.9254C42.6589 58.8259 42.1342 56.7225 41.3384 54.7171C40.5408 52.7116 39.5105 50.7734 38.2246 49.0043C39.6931 50.6313 40.9367 52.4696 41.967 54.4308C42.9953 56.394 43.7814 58.5185 44.1678 60.7602C44.3677 61.8801 44.4542 63.0288 44.41 64.1852C44.3696 65.3397 44.2235 66.5057 43.9121 67.6351L43.8045 68.0616L43.6661 68.4784C43.57 68.755 43.4873 69.0393 43.3797 69.3121C43.151 69.8519 42.9376 70.4051 42.6531 70.918C42.1342 71.9783 41.4595 72.9445 40.7599 73.8896L38.5302 72.2415H38.5283Z" fill="white"/>
<path d="M50.9885 70.3494C51.0001 70.3033 51.0135 70.2591 51.0289 70.2149L51.052 70.1534C51.3941 69.2026 51.7247 68.2364 51.89 67.2394C52.0034 66.7438 52.038 66.2406 52.0995 65.7373C52.1226 65.4856 52.1207 65.2321 52.1322 64.9785L52.1457 64.5982L52.1303 64.2178C52.1149 63.1998 51.9477 62.1836 51.6901 61.1847C51.4364 60.1839 51.0654 59.2024 50.5945 58.263C49.6642 56.3748 48.3745 54.6344 46.8714 53.0843C45.3664 51.5379 43.673 50.1395 41.8066 48.9966C43.7864 49.9378 45.6374 51.1614 47.3423 52.5791C49.0453 54.0005 50.583 55.6621 51.7997 57.585C52.4128 58.5416 52.9337 59.5712 53.3354 60.6565C53.7391 61.738 54.0505 62.8713 54.1946 64.0334L54.258 64.4695L54.2907 64.9074C54.308 65.1994 54.3407 65.4933 54.3445 65.7872C54.3388 66.3731 54.3542 66.9647 54.2869 67.5487C54.2138 68.7281 53.9601 69.8768 53.6756 71.0179L50.9847 70.3494H50.9885Z" fill="white"/>
<path d="M61.7722 63.8375C61.7646 63.7914 61.7607 63.7453 61.7588 63.6992L61.7549 63.6339C61.7069 62.6254 61.6415 61.6054 61.4128 60.62C61.3282 60.1186 61.1687 59.6403 61.0322 59.1505C60.9573 58.9085 60.8573 58.676 60.7727 58.4378L60.6401 58.0805L60.4806 57.7348C60.075 56.8012 59.533 55.9253 58.9141 55.1012C58.2971 54.2733 57.5782 53.5088 56.7844 52.8211C55.2025 51.4323 53.3438 50.3162 51.3621 49.4614C49.3785 48.6086 47.2796 47.9631 45.1172 47.6212C47.3065 47.7345 49.4861 48.1552 51.6024 48.8122C53.7186 49.473 55.7772 50.42 57.6378 51.7339C58.57 52.3831 59.4465 53.1361 60.2326 53.9833C61.0207 54.8285 61.7415 55.7563 62.32 56.7743L62.5449 57.1528L62.7429 57.5446C62.8717 57.8078 63.0139 58.0671 63.1293 58.336C63.3484 58.8797 63.5906 59.4213 63.752 59.9861C64.1364 61.1041 64.3421 62.2624 64.5151 63.4245L61.7722 63.8356V63.8375Z" fill="white"/>
<path d="M69.2413 53.697C69.2163 53.6567 69.1951 53.6163 69.1759 53.5741L69.1471 53.5145C68.7165 52.6002 68.2648 51.6839 67.6767 50.8617C67.4056 50.4315 67.075 50.0511 66.7617 49.6497C66.6003 49.4556 66.4196 49.2789 66.2485 49.0907L65.9891 48.8121L65.7084 48.5547C64.9761 47.8459 64.14 47.2466 63.252 46.7203C62.364 46.192 61.4087 45.7598 60.4111 45.4275C58.4179 44.7494 56.2728 44.4286 54.1143 44.396C51.9558 44.3652 49.7684 44.5746 47.6406 45.0856C49.7069 44.3537 51.8808 43.9081 54.0893 43.7064C56.2978 43.5085 58.562 43.595 60.784 44.0963C61.895 44.3403 62.9925 44.6995 64.042 45.1835C65.0934 45.6619 66.114 46.2439 67.0404 46.9642L67.3941 47.2274L67.7266 47.5155C67.9458 47.7095 68.1764 47.8959 68.3878 48.0995C68.7992 48.5182 69.2297 48.9255 69.5949 49.3865C70.3772 50.272 71.0115 51.2651 71.617 52.2717L69.2413 53.7008V53.697Z" fill="white"/>
<path d="M72.2615 41.4704C72.2231 41.4416 72.1885 41.4128 72.1539 41.3821L72.1058 41.3379C71.3581 40.6579 70.5893 39.9837 69.732 39.4477C69.3168 39.1538 68.8651 38.9291 68.423 38.6794C68.1982 38.5622 67.9637 38.4681 67.7349 38.3586L67.387 38.1991L67.0295 38.0685C66.0819 37.6939 65.0786 37.4596 64.0579 37.3136C63.0354 37.1657 61.9878 37.1311 60.9384 37.206C58.8375 37.3424 56.7328 37.8668 54.7261 38.6621C52.7194 39.4593 50.78 40.4889 49.0098 41.7739C50.6378 40.3064 52.4772 39.0635 54.4397 38.0339C56.4041 37.0063 58.53 36.2206 60.7731 35.8345C61.8936 35.6347 63.0431 35.5483 64.2002 35.5925C65.3554 35.6328 66.5221 35.7788 67.6523 36.09L68.079 36.1976L68.4961 36.3359C68.7729 36.4319 69.0573 36.5145 69.3303 36.6221C69.8704 36.8507 70.424 37.0639 70.9372 37.3482C71.9982 37.8668 72.965 38.5411 73.9107 39.2403L72.2615 41.4685V41.4704Z" fill="white"/>
<path d="M70.3681 29.021C70.322 29.0095 70.2778 28.996 70.2335 28.9807L70.172 28.9576C69.2206 28.6157 68.2538 28.2853 67.2562 28.1201C66.7603 28.0068 66.2567 27.9722 65.7531 27.9107C65.5013 27.8877 65.2476 27.8896 64.9939 27.8781L64.6133 27.8646L64.2327 27.88C63.214 27.8954 62.1972 28.0625 61.1977 28.3199C60.1963 28.5734 59.2141 28.9442 58.2742 29.4148C56.3848 30.3445 54.6433 31.6335 53.0922 33.1356C51.5449 34.6397 50.1456 36.332 49.002 38.1972C49.9438 36.2187 51.1682 34.3688 52.5867 32.665C54.009 30.9631 55.6717 29.4263 57.5957 28.2104C58.5529 27.5976 59.5832 27.0771 60.6691 26.6756C61.7513 26.2722 62.8853 25.961 64.0482 25.8169L64.4845 25.7536L64.9228 25.7209C65.2149 25.7036 65.509 25.671 65.8031 25.6671C66.3893 25.6729 66.9813 25.6575 67.5657 25.7247C68.7458 25.7977 69.8953 26.0513 71.037 26.3356L70.3681 29.0249V29.021Z" fill="white"/>
<path d="M63.8514 18.2428C63.8053 18.2505 63.7592 18.2544 63.713 18.2563L63.6477 18.2601C62.6386 18.3082 61.6179 18.3735 60.6319 18.6021C60.1302 18.6866 59.6516 18.846 59.1615 18.9824C58.9193 19.0573 58.6867 19.1572 58.4484 19.2417L58.0909 19.3743L57.7449 19.5337C56.8107 19.939 55.9343 20.4807 55.1097 21.0992C54.2813 21.7158 53.5163 22.4343 52.8281 23.2276C51.4385 24.8085 50.3217 26.666 49.4664 28.6465C48.613 30.6289 47.9671 32.7265 47.625 34.8875C47.7384 32.6996 48.1593 30.5213 48.8167 28.4064C49.4779 26.2914 50.4255 24.2342 51.7402 22.3747C52.3899 21.4431 53.1434 20.5671 53.991 19.7815C54.8367 18.9939 55.7651 18.2736 56.7838 17.6954L57.1625 17.4706L57.5546 17.2728C57.8179 17.1441 58.0774 17.0019 58.3465 16.8867C58.8905 16.6677 59.4325 16.4257 59.9976 16.2643C61.1163 15.8801 62.2753 15.6746 63.4382 15.5017L63.8495 18.2428H63.8514Z" fill="white"/>
<path d="M53.7047 10.7763C53.6643 10.8013 53.6239 10.8224 53.5816 10.8417L53.5221 10.8705C52.6071 11.3007 51.6903 11.7522 50.8676 12.34C50.4371 12.6108 50.0565 12.9412 49.6548 13.2543C49.4606 13.4157 49.2838 13.5962 49.0954 13.7672L48.8167 14.0265L48.5592 14.307C47.8499 15.0388 47.2502 15.8744 46.7236 16.7619C46.195 17.6493 45.7625 18.604 45.43 19.601C44.7515 21.593 44.4305 23.7367 44.3978 25.8939C44.3671 28.0511 44.5766 30.237 45.0878 32.3635C44.3555 30.2985 43.9096 28.126 43.7078 25.9188C43.5098 23.7117 43.5963 21.4489 44.098 19.2283C44.3421 18.118 44.7015 17.0212 45.1859 15.9724C45.6645 14.9217 46.2469 13.9017 46.9677 12.9758L47.231 12.6223L47.5193 12.29C47.7134 12.071 47.8999 11.8405 48.1036 11.6292C48.5227 11.2181 48.9301 10.7879 49.3914 10.4229C50.2775 9.64108 51.2713 9.00719 52.2784 8.4021L53.7085 10.7763H53.7047Z" fill="white"/>
</g>
<defs>
<clipPath id="clip0_411_334">
<rect width="80" height="80" fill="white"/>
</clipPath>
</defs>
</svg>
