<svg width="91" height="75" viewBox="0 0 91 75" fill="none" xmlns="http://www.w3.org/2000/svg">
<g clip-path="url(#clip0_411_277)">
<path d="M89.5964 23.9122H1.40395C0.749288 23.9122 0.180667 23.462 0.0366412 22.8256C-0.107385 22.1892 0.206854 21.5398 0.797921 21.257L45.07 0.137842C45.4553 -0.0463693 45.9023 -0.0445086 46.2876 0.139703L90.2099 21.2607C90.7991 21.5436 91.1133 22.1948 90.9674 22.8293C90.8215 23.4638 90.2548 23.9141 89.6001 23.9141L89.5964 23.9122ZM7.57275 21.1212H83.4706L45.6741 2.94381L7.57275 21.1212Z" fill="white"/>
<path d="M87.4986 74.946H3.66066C2.88629 74.946 2.25781 74.3208 2.25781 73.5504V22.5165C2.25781 21.7462 2.88629 21.121 3.66066 21.121C4.43503 21.121 5.06351 21.7462 5.06351 22.5165V72.1549H86.0958V22.5165C86.0958 21.7462 86.7243 21.121 87.4986 21.121C88.273 21.121 88.9015 21.7462 88.9015 22.5165V73.5504C88.9015 74.3208 88.273 74.946 87.4986 74.946Z" fill="white"/>
<path d="M36.8482 18.1643C36.0738 18.1643 35.4453 17.5391 35.4453 16.7688V11.635C35.4453 10.8647 36.0738 10.2395 36.8482 10.2395C37.6225 10.2395 38.251 10.8647 38.251 11.635V16.7688C38.251 17.5391 37.6225 18.1643 36.8482 18.1643Z" fill="white"/>
<path d="M42.6157 18.1643C41.8414 18.1643 41.2129 17.5391 41.2129 16.7688V11.635C41.2129 10.8647 41.8414 10.2395 42.6157 10.2395C43.3901 10.2395 44.0186 10.8647 44.0186 11.635V16.7688C44.0186 17.5391 43.3901 18.1643 42.6157 18.1643Z" fill="white"/>
<path d="M48.3833 18.1643C47.6089 18.1643 46.9805 17.5391 46.9805 16.7688V11.635C46.9805 10.8647 47.6089 10.2395 48.3833 10.2395C49.1577 10.2395 49.7862 10.8647 49.7862 11.635V16.7688C49.7862 17.5391 49.1577 18.1643 48.3833 18.1643Z" fill="white"/>
<path d="M54.1509 18.1643C53.3765 18.1643 52.748 17.5391 52.748 16.7688V11.635C52.748 10.8647 53.3765 10.2395 54.1509 10.2395C54.9253 10.2395 55.5537 10.8647 55.5537 11.635V16.7688C55.5537 17.5391 54.9253 18.1643 54.1509 18.1643Z" fill="white"/>
<path d="M79.302 73.9914C78.5276 73.9914 77.8991 73.3662 77.8991 72.5959V30.0226H13.1006V72.5959C13.1006 73.3662 12.4721 73.9914 11.6978 73.9914C10.9234 73.9914 10.2949 73.3662 10.2949 72.5959V28.6271C10.2949 27.8568 10.9234 27.2316 11.6978 27.2316H79.302C80.0764 27.2316 80.7048 27.8568 80.7048 28.6271V72.5959C80.7048 73.3662 80.0764 73.9914 79.302 73.9914Z" fill="white"/>
<path d="M83.693 30.0226H7.30324C6.52887 30.0226 5.90039 29.3974 5.90039 28.6271C5.90039 27.8568 6.52887 27.2316 7.30324 27.2316H83.693C84.4674 27.2316 85.0959 27.8568 85.0959 28.6271C85.0959 29.3974 84.4674 30.0226 83.693 30.0226Z" fill="white"/>
<path d="M45.525 68.026C39.648 68.026 34.8652 63.3315 34.8652 57.5614C34.8652 51.7913 39.648 47.0967 45.525 47.0967C51.402 47.0967 56.1848 51.7913 56.1848 57.5614C56.1848 63.3315 51.402 68.026 45.525 68.026ZM45.525 49.3295C40.8844 49.3295 37.1098 53.0231 37.1098 57.5614C37.1098 62.0997 40.8844 65.7932 45.525 65.7932C50.1656 65.7932 53.9402 62.0997 53.9402 57.5614C53.9402 53.0231 50.1656 49.3295 45.525 49.3295Z" fill="white"/>
<path d="M50.7037 55.3192H40.3488C39.7297 55.3192 39.2266 54.8186 39.2266 54.2027C39.2266 53.5868 39.7297 53.0863 40.3488 53.0863H50.7037C51.3229 53.0863 51.826 53.5868 51.826 54.2027C51.826 54.8186 51.3229 55.3192 50.7037 55.3192Z" fill="white"/>
<path d="M43.2351 49.6031C43.1622 49.6031 43.0873 49.5956 43.0125 49.5807C42.4046 49.4598 42.0118 48.8699 42.1334 48.2671L44.3798 37.1586C44.4846 36.6394 44.9428 36.2636 45.4759 36.2617H45.4797C46.0109 36.2617 46.4691 36.632 46.5776 37.1511L48.9007 48.2559C49.0279 48.8588 48.637 49.4505 48.031 49.577C47.4231 49.7017 46.8301 49.3147 46.703 48.7118L45.4965 42.9473L44.3312 48.7062C44.2246 49.2365 43.7551 49.6031 43.2314 49.6031H43.2351Z" fill="white"/>
<path d="M35.9891 57.9521C35.9404 57.9521 35.8918 57.9483 35.8432 57.9428L31.4195 57.3697C30.8041 57.2897 30.3721 56.7296 30.4506 56.1193C30.5311 55.5071 31.0941 55.0773 31.7076 55.1554L36.1312 55.7285C36.7466 55.8085 37.1787 56.3686 37.1001 56.9789C37.0272 57.5409 36.5446 57.9521 35.9891 57.9521Z" fill="white"/>
<path d="M37.0904 63.043C36.9633 63.043 36.8342 63.0207 36.7089 62.976L30.194 60.6334C29.6105 60.4231 29.3093 59.783 29.5207 59.2043C29.732 58.6238 30.3755 58.3242 30.9572 58.5345L37.472 60.8771C38.0556 61.0874 38.3568 61.7275 38.1454 62.3062C37.9808 62.7602 37.5487 63.043 37.0904 63.043Z" fill="white"/>
<path d="M23.2121 58.0526C23.0849 58.0526 22.9558 58.0303 22.8305 57.9856L15.2289 55.2522C14.6902 55.0587 14.3853 54.493 14.52 53.9385C14.6547 53.3859 15.184 53.0212 15.7545 53.0938L23.6741 54.1172C24.2895 54.1972 24.7215 54.7573 24.643 55.3676C24.5943 55.7379 24.3699 56.0412 24.0631 56.2068C24.3175 56.5026 24.4092 56.9213 24.267 57.3139C24.1024 57.7679 23.6703 58.0507 23.2121 58.0507V58.0526Z" fill="white"/>
<path d="M55.0091 57.9521C54.4405 57.9521 53.9523 57.5241 53.8943 56.9492C53.8326 56.3351 54.2815 55.7881 54.8969 55.7248H54.9063L58.7033 55.2317C59.3168 55.1499 59.8817 55.5834 59.9603 56.1937C60.0407 56.8059 59.6067 57.366 58.9932 57.4441L55.1812 57.9391C55.17 57.9391 55.1606 57.9409 55.1494 57.9428H55.1251C55.0858 57.9484 55.0484 57.9502 55.011 57.9502L55.0091 57.9521Z" fill="white"/>
<path d="M53.9089 63.043C53.4581 63.043 53.0335 62.7714 52.8614 62.3285C52.6369 61.7535 52.925 61.1079 53.503 60.8846L53.5684 60.8585C53.5909 60.8511 53.6115 60.8418 53.6339 60.8362L59.6082 58.6889C60.1918 58.4787 60.8352 58.7801 61.0447 59.3588C61.2561 59.9393 60.953 60.5794 60.3713 60.7878L54.3578 62.9481C54.3578 62.9481 54.3447 62.9518 54.3391 62.9556L54.3129 62.9649C54.1801 63.017 54.0435 63.0412 53.907 63.0412L53.9089 63.043Z" fill="white"/>
<path d="M67.2001 58.2648C66.7399 58.2648 66.3097 57.9819 66.1451 57.5279C65.9843 57.0851 66.1227 56.6087 66.4556 56.3129C66.1152 56.1584 65.8608 55.8365 65.8084 55.4402C65.728 54.828 66.1619 54.2679 66.7773 54.1898L75.2449 53.0957C75.8154 53.0212 76.3448 53.386 76.4794 53.9404C76.6141 54.4931 76.3092 55.0606 75.7705 55.2541L67.5835 58.1996C67.4582 58.2443 67.3291 58.2666 67.2019 58.2666L67.2001 58.2648Z" fill="white"/>
<path d="M63.015 62.1461C60.0821 62.1461 57.6973 59.7644 57.6973 56.8356C57.6973 53.9069 60.084 51.5251 63.015 51.5251C65.946 51.5251 68.3346 53.9069 68.3346 56.8356C68.3346 59.7644 65.9479 62.1461 63.015 62.1461ZM63.015 53.758C61.3204 53.758 59.9418 55.1387 59.9418 56.8356C59.9418 58.5326 61.3204 59.9133 63.015 59.9133C64.7096 59.9133 66.09 58.5326 66.09 56.8356C66.09 55.1387 64.7115 53.758 63.015 53.758Z" fill="white"/>
<path d="M27.4075 62.1461C24.4746 62.1461 22.0879 59.7644 22.0879 56.8356C22.0879 53.9069 24.4746 51.5251 27.4075 51.5251C30.3404 51.5251 32.7252 53.9069 32.7252 56.8356C32.7252 59.7644 30.3385 62.1461 27.4075 62.1461ZM27.4075 53.758C25.7129 53.758 24.3324 55.1387 24.3324 56.8356C24.3324 58.5326 25.711 59.9133 27.4075 59.9133C29.104 59.9133 30.4807 58.5326 30.4807 56.8356C30.4807 55.1387 29.1021 53.758 27.4075 53.758Z" fill="white"/>
<path d="M28.1349 56.8357C28.1349 57.2376 27.8094 57.5613 27.4073 57.5613C27.0051 57.5613 26.6797 57.2357 26.6797 56.8357C26.6797 56.4356 27.0051 56.11 27.4073 56.11C27.8094 56.11 28.1349 56.4356 28.1349 56.8357Z" fill="white"/>
<path d="M63.7404 56.8357C63.7404 57.2376 63.4149 57.5613 63.0128 57.5613C62.6106 57.5613 62.2852 57.2357 62.2852 56.8357C62.2852 56.4356 62.6106 56.11 63.0128 56.11C63.4149 56.11 63.7404 56.4356 63.7404 56.8357Z" fill="white"/>
<path d="M50.7051 50.8275C50.2618 50.8275 49.8409 50.5651 49.6651 50.1297C49.4313 49.5585 49.7081 48.9072 50.2823 48.6746L61.868 43.9986C62.4422 43.766 63.0969 44.0414 63.3307 44.6127C63.5645 45.1839 63.2877 45.8352 62.7135 46.0678L51.1278 50.7437C50.9894 50.7996 50.8472 50.8256 50.7069 50.8256L50.7051 50.8275Z" fill="white"/>
<path d="M39.5701 50.8274C39.4298 50.8274 39.2877 50.8014 39.1493 50.7456L27.5636 46.0696C26.9894 45.837 26.7125 45.1857 26.9463 44.6145C27.1801 44.0433 27.8329 43.7679 28.409 44.0005L39.9947 48.6765C40.5689 48.909 40.8458 49.5603 40.612 50.1315C40.4343 50.5651 40.0153 50.8293 39.572 50.8293L39.5701 50.8274Z" fill="white"/>
<path d="M64.1371 61.0298H61.8926V68.2959H64.1371V61.0298Z" fill="white"/>
<path d="M67.4195 73.7143H58.6152V67.1794H67.4195V73.7143ZM60.8579 71.4814H65.1731V69.4123H60.8579V71.4814Z" fill="white"/>
<path d="M27.8032 61.0298H25.5586V68.2959H27.8032V61.0298Z" fill="white"/>
<path d="M31.0836 73.7143H22.2793V67.1794H31.0836V73.7143ZM24.5239 71.4814H28.839V69.4123H24.5239V71.4814Z" fill="white"/>
<path d="M45.4993 75C44.8109 75 44.1825 74.5776 43.9225 73.9449L40.7539 66.7737L42.8095 65.875L45.4993 71.9633L48.189 65.875L50.2446 66.7737L47.0779 73.9449C46.818 74.5776 46.1895 75 45.5011 75H45.4993Z" fill="white"/>
<path d="M45.5196 63.1547C43.5463 63.1547 41.9414 61.5527 41.9414 59.584C41.9414 57.6154 43.5463 56.0133 45.5196 56.0133C47.4929 56.0133 49.0978 57.6154 49.0978 59.584C49.0978 61.5527 47.4929 63.1547 45.5196 63.1547ZM45.5196 58.2462C44.7845 58.2462 44.186 58.8453 44.186 59.584C44.186 60.3227 44.7845 60.9219 45.5196 60.9219C46.2547 60.9219 46.8532 60.3227 46.8532 59.584C46.8532 58.8453 46.2547 58.2462 45.5196 58.2462Z" fill="white"/>
</g>
<defs>
<clipPath id="clip0_411_277">
<rect width="91" height="75" fill="white"/>
</clipPath>
</defs>
</svg>
