<svg width="77" height="81" viewBox="0 0 77 81" fill="none" xmlns="http://www.w3.org/2000/svg">
<g clip-path="url(#clip0_411_357)">
<path d="M28.9794 28.683C28.4919 28.683 28.0661 28.3247 27.9964 27.8289C27.9188 27.2854 28.2969 26.7797 28.8401 26.7021C29.4967 26.6085 30.1434 26.4413 30.7643 26.2024C32.9332 25.3702 34.6484 23.7436 35.5955 21.6193C36.5407 19.495 36.6044 17.1318 35.7726 14.9597C34.0574 10.4802 29.0172 8.23046 24.5401 9.94861C21.042 11.2905 18.7975 14.7029 18.9587 18.4438C18.9825 18.9933 18.5567 19.4572 18.0075 19.4811C17.9936 19.4811 17.9797 19.4811 17.9638 19.4811C17.4345 19.4811 16.9927 19.063 16.9708 18.5274C16.7738 13.9324 19.5317 9.73757 23.8297 8.0891C29.3316 5.98073 35.5239 8.74212 37.6331 14.247C38.6539 16.9148 38.5763 19.8195 37.4142 22.4296C36.2522 25.0397 34.143 27.0385 31.4786 28.0599C30.7205 28.3506 29.9285 28.5556 29.1247 28.6711C29.0769 28.6771 29.0291 28.681 28.9834 28.681L28.9794 28.683Z" fill="white"/>
<path d="M20.3155 24.0203C19.8897 24.0203 19.4977 23.7455 19.3664 23.3195C19.2052 22.7919 19.4997 22.2344 20.025 22.0732C20.5503 21.9119 21.1074 22.2066 21.2686 22.7322C21.4298 23.2578 21.1353 23.8152 20.61 23.9785C20.5125 24.0083 20.413 24.0223 20.3155 24.0223V24.0203Z" fill="white"/>
<path d="M19.5526 30.7077C19.1626 30.7077 18.7945 30.4788 18.6353 30.0965C18.4244 29.5868 18.6632 29.0035 19.1706 28.7925C19.678 28.5814 20.261 28.8203 20.4719 29.328C20.6828 29.8357 20.4441 30.419 19.9366 30.6301C19.8113 30.6818 19.682 30.7077 19.5546 30.7077H19.5526Z" fill="white"/>
<path d="M31.8977 36.137C31.3903 36.137 30.9107 35.8542 30.6739 35.3705L29.4721 32.8997C27.9817 33.0849 26.4734 33.0391 24.9831 32.7644C24.4418 32.6648 24.0857 32.1452 24.1851 31.6037C24.2846 31.0621 24.806 30.7058 25.3452 30.8053C26.7659 31.0681 28.2026 31.088 29.6193 30.869C30.2163 30.7774 30.7953 31.0781 31.06 31.6156L32.2101 33.9828L34.9202 32.9435L34.1979 30.4211C34.0347 29.8377 34.2636 29.2285 34.767 28.898C36.0624 28.0519 37.1826 26.9907 38.096 25.7424C38.4601 25.2527 39.0809 25.0596 39.646 25.2527L42.1293 26.1088L43.3113 23.4569L41.017 22.1827C40.4937 21.892 40.2211 21.2987 40.3425 20.7074C40.6589 19.1884 40.7006 17.6454 40.4658 16.1144C40.3703 15.5271 40.6688 14.9458 41.21 14.677L43.5759 13.5262L42.5372 10.8146L40.0161 11.5373C39.4371 11.6986 38.8123 11.4617 38.49 10.958C37.6463 9.66985 36.5837 8.54897 35.3401 7.63316C34.8565 7.28077 34.6556 6.6377 34.8565 6.07428L35.7102 3.59958L33.0577 2.41698L31.7843 4.7125C31.5017 5.23411 30.9068 5.50886 30.3098 5.38741C28.7856 5.06887 27.2435 5.02706 25.7213 5.26398C25.1223 5.35556 24.5453 5.05493 24.2807 4.5154L23.1325 2.15418L20.4224 3.19344L21.1447 5.71392C21.3079 6.29527 21.079 6.90648 20.5756 7.23697C19.2842 8.08111 18.164 9.14226 17.2447 10.3945C16.8805 10.8883 16.2537 11.0814 15.6846 10.8783L13.2133 10.0262L12.0293 12.6801L14.3256 13.9543C14.8449 14.235 15.1255 14.8462 15.0001 15.4355C14.6838 16.9446 14.642 18.4876 14.8768 20.0226C14.9723 20.6019 14.6659 21.1972 14.1326 21.462L11.7667 22.6127L12.2582 23.8989C12.4552 24.4125 12.1985 24.9879 11.6851 25.185C11.1737 25.3821 10.5967 25.1253 10.3997 24.6116L9.70325 22.7939C9.44855 22.1289 9.73907 21.3903 10.3778 21.0758L12.8452 19.8752C12.6661 18.402 12.7059 16.9287 12.9626 15.4793L10.5648 14.1474C9.94004 13.795 9.68932 13.0424 9.97983 12.3914L11.6274 8.70028C11.9139 8.05523 12.6601 7.73071 13.3247 7.96365L15.9135 8.85756C16.8248 7.69089 17.8953 6.67553 19.1032 5.83139L18.349 3.19742C18.154 2.50657 18.5102 1.79781 19.1748 1.54298L22.9495 0.091605C23.6141 -0.163231 24.3523 0.127441 24.6667 0.766522L25.8665 3.23525C27.3271 3.05606 28.8015 3.09588 30.2601 3.35271L31.5912 0.953667C31.9295 0.338477 32.6996 0.0816505 33.3443 0.368341L37.0354 2.01283C37.6861 2.3035 38.0044 3.03217 37.7756 3.70709L36.8802 6.30522C38.0422 7.21507 39.057 8.28617 39.9027 9.49863L42.5372 8.74408C43.2277 8.54897 43.9361 8.90534 44.1908 9.56832L45.6374 13.3431C45.8921 14.008 45.6035 14.7487 44.9648 15.0632L42.4955 16.2657C42.6745 17.737 42.6347 19.2103 42.3781 20.6616L44.7758 21.9936C45.3986 22.338 45.6513 23.0925 45.3608 23.7475L43.7132 27.4427C43.4267 28.0857 42.6805 28.4083 42.0139 28.1753L39.4252 27.2814C38.5198 28.4441 37.4473 29.4595 36.2355 30.3076L36.9916 32.9455C37.1846 33.6364 36.8304 34.3451 36.1678 34.6L32.3951 36.0474C32.232 36.1091 32.0648 36.1389 31.8997 36.1389L31.8977 36.137ZM42.6626 26.2919H42.6666C42.6666 26.2919 42.6646 26.2919 42.6626 26.2919ZM43.8087 23.7336C43.8087 23.7336 43.8107 23.7336 43.8127 23.7336H43.8087ZM12.9069 20.3192C12.9069 20.3192 12.9069 20.3292 12.9069 20.3331C12.9069 20.3292 12.9069 20.3232 12.9069 20.3192ZM42.4298 15.8018C42.4298 15.8018 42.4298 15.8118 42.4298 15.8158C42.4298 15.8118 42.4298 15.8078 42.4298 15.8018ZM13.3566 15.6943C13.3566 15.6943 13.3645 15.6983 13.3685 15.7003L13.3566 15.6943ZM13.0521 15.0234C13.0521 15.0234 13.0521 15.0254 13.0521 15.0274C13.0521 15.0274 13.0521 15.0254 13.0521 15.0234ZM40.1514 9.86496C40.1514 9.86496 40.1554 9.87093 40.1574 9.87492C40.1554 9.87093 40.1534 9.86894 40.1514 9.86496ZM12.6721 9.84107C12.6721 9.84107 12.674 9.84107 12.676 9.84107H12.6721ZM16.3313 8.99693L16.3433 9.00091C16.3433 9.00091 16.3353 8.99892 16.3313 8.99693ZM36.7369 6.72331L36.7329 6.73327C36.7329 6.73327 36.7349 6.7253 36.7369 6.72331ZM36.5121 6.02649C36.5121 6.02649 36.5141 6.02649 36.5161 6.02849C36.5161 6.02849 36.5141 6.02849 36.5121 6.02649ZM30.0432 3.74492C30.0432 3.74492 30.0392 3.75288 30.0372 3.75686L30.0432 3.74492ZM33.3323 1.91727V1.92125C33.3323 1.92125 33.3323 1.91926 33.3323 1.91727Z" fill="white"/>
<path d="M53.564 79.5706C53.3948 79.5706 53.2237 79.5407 53.0546 79.481C52.2805 79.2002 51.8786 78.3442 52.1612 77.5677L70.5013 26.9788H62.8166L2.29033 65.2719C1.59389 65.7139 0.672609 65.5048 0.230869 64.808C-0.208881 64.1112 -0.00193986 63.1894 0.694497 62.7474L61.5869 24.2234C61.8257 24.0721 62.1023 23.9924 62.3848 23.9924H72.6304C73.1179 23.9924 73.5736 24.2293 73.8522 24.6295C74.1307 25.0277 74.1984 25.5374 74.0332 25.9953L54.9668 78.587C54.7459 79.1943 54.1748 79.5706 53.564 79.5706Z" fill="white"/>
<path d="M1.49524 81.0001C1.05947 81.0001 0.629671 80.8109 0.333188 80.4466C-0.184165 79.8055 -0.0846742 78.8658 0.556047 78.3462L60.9968 29.4515C61.6375 28.9339 62.5767 29.0334 63.096 29.6745C63.6134 30.3156 63.5139 31.2553 62.8732 31.7749L2.43245 80.6676C2.15586 80.8906 1.82356 81.0001 1.49524 81.0001Z" fill="white"/>
<path d="M35.7489 79.5706C35.4802 79.5706 35.2076 79.4969 34.9629 79.3456C34.2625 78.9096 34.0476 77.9898 34.4833 77.289L55.848 42.9001C56.1206 42.4621 56.6002 42.1953 57.1155 42.1953H66.0319C66.8557 42.1953 67.5243 42.8643 67.5243 43.6885C67.5243 44.5127 66.8557 45.1817 66.0319 45.1817H57.9453L37.0184 78.8658C36.7358 79.3217 36.2483 79.5706 35.7489 79.5706Z" fill="white"/>
<path d="M61.4123 56.912H50.0803C49.2565 56.912 48.5879 56.2431 48.5879 55.4188C48.5879 54.5946 49.2565 53.9257 50.0803 53.9257H61.4123C62.2361 53.9257 62.9046 54.5946 62.9046 55.4188C62.9046 56.2431 62.2361 56.912 61.4123 56.912Z" fill="white"/>
<path d="M57.2854 68.9451H42.8791C42.0553 68.9451 41.3867 68.2762 41.3867 67.4519C41.3867 66.6277 42.0553 65.9587 42.8791 65.9587H57.2854C58.1092 65.9587 58.7777 66.6277 58.7777 67.4519C58.7777 68.2762 58.1092 68.9451 57.2854 68.9451Z" fill="white"/>
<path d="M60.7629 26.9788C60.5758 26.9788 60.3848 26.9429 60.2017 26.8673C59.4376 26.5567 59.0715 25.6847 59.3819 24.9222L67.4586 5.06488C67.6874 4.50146 68.2346 4.13513 68.8415 4.13513H72.6321C73.4559 4.13513 74.1245 4.80408 74.1245 5.62831V25.4856C74.1245 26.3098 73.4559 26.9788 72.6321 26.9788C71.8083 26.9788 71.1398 26.3098 71.1398 25.4856V7.12149H69.8444L62.1458 26.049C61.911 26.6284 61.3519 26.9788 60.7629 26.9788Z" fill="white"/>
<path d="M64.3081 49.928C63.6335 49.928 63.0206 49.4661 62.8575 48.7812C62.6665 47.9789 63.1599 47.1725 63.9618 46.9814L74.0124 44.5784V41.9922L67.3027 41.1301C66.4849 41.0246 65.9079 40.276 66.0133 39.4598C66.1188 38.6415 66.865 38.0641 67.6828 38.1697L75.6938 39.199C76.438 39.2945 76.9951 39.9296 76.9951 40.6802V45.759C76.9951 46.4498 76.5216 47.0511 75.849 47.2104L64.6523 49.8881C64.5349 49.916 64.4195 49.9299 64.3041 49.9299L64.3081 49.928Z" fill="white"/>
<path d="M59.2436 64.7502C58.5691 64.7502 57.9562 64.2883 57.793 63.6034C57.602 62.8011 58.0955 61.9948 58.8974 61.8037L71.3258 58.8312V56.2451L62.8611 55.158C62.0433 55.0525 61.4662 54.3039 61.5717 53.4876C61.6771 52.6694 62.4233 52.09 63.2411 52.1975L73.0072 53.4518C73.7514 53.5474 74.3085 54.1825 74.3085 54.933V60.0118C74.3085 60.7027 73.8349 61.3039 73.1624 61.4632L59.5878 64.7084C59.4704 64.7363 59.355 64.7502 59.2396 64.7502H59.2436Z" fill="white"/>
<path d="M54.6225 79.5705C53.948 79.5705 53.3351 79.1086 53.1719 78.4237C52.9809 77.6214 53.4744 76.8151 54.2763 76.624L66.7047 73.6515V71.0654L57.3306 69.8609C56.5128 69.7553 55.9358 69.0068 56.0412 68.1905C56.1467 67.3722 56.8929 66.7949 57.7107 66.9004L68.3861 68.2721C69.1303 68.3677 69.6874 69.0028 69.6874 69.7533V74.8321C69.6874 75.523 69.2138 76.1242 68.5413 76.2835L54.9667 79.5287C54.8493 79.5566 54.7339 79.5705 54.6185 79.5705H54.6225Z" fill="white"/>
<path d="M27.6131 24.8446C25.0342 24.8446 22.5967 23.2757 21.6197 20.7254C21.0069 19.1247 21.0526 17.3826 21.751 15.8158C22.4495 14.251 23.713 13.0504 25.3128 12.4372C26.1167 12.1286 26.9564 11.9873 27.81 12.0152C28.2319 12.0291 28.598 12.3078 28.7254 12.71C28.8527 13.1122 28.7134 13.5502 28.3771 13.805C27.3365 14.5914 26.9345 15.995 27.4041 17.2174C27.6867 17.954 28.2379 18.5354 28.9582 18.8559C29.6785 19.1765 30.4804 19.1984 31.2166 18.9156C31.6265 18.7584 31.9887 18.5195 32.2891 18.2049C32.5816 17.9003 33.0333 17.8127 33.4174 17.9859C33.8014 18.1611 34.0342 18.5573 33.9984 18.9794C33.7875 21.4102 32.1797 23.5445 29.9013 24.4165C29.1492 24.7052 28.3752 24.8426 27.6131 24.8426V24.8446ZM25.4939 14.5416C24.6423 15.0035 23.9677 15.7282 23.5678 16.6281C23.0862 17.7072 23.0544 18.9097 23.4762 20.0126C23.8981 21.1156 24.7258 21.9896 25.8043 22.4694C26.8828 22.9512 28.0846 22.9831 29.187 22.559C30.0108 22.2424 30.7072 21.689 31.2047 20.9922C30.1819 21.2171 29.1193 21.1096 28.1443 20.6756C26.9385 20.1381 26.0152 19.1625 25.5436 17.9301C25.1178 16.8192 25.1218 15.6167 25.4939 14.5416Z" fill="white"/>
<path d="M12.0072 40.8774C11.9216 40.8774 11.836 40.8774 11.7505 40.8714C11.3286 40.8555 10.9645 40.5728 10.8391 40.1706C10.7158 39.7684 10.8571 39.3304 11.1953 39.0776C12.242 38.2991 12.6539 36.8975 12.1942 35.6731C11.9176 34.9345 11.3704 34.3492 10.6521 34.0227C9.93378 33.6962 9.13188 33.6703 8.39366 33.947C7.98176 34.1023 7.61962 34.3372 7.31518 34.6498C7.02068 34.9524 6.56899 35.036 6.18496 34.8589C5.80092 34.6817 5.57209 34.2815 5.61189 33.8614C5.84072 31.4325 7.46441 29.3102 9.74872 28.4541C11.3525 27.8529 13.0936 27.9126 14.6536 28.6194C16.2117 29.3281 17.4016 30.6023 18.0045 32.207C18.6074 33.8116 18.5457 35.5537 17.8373 37.1146C17.129 38.6754 15.8555 39.866 14.2517 40.4672C13.5254 40.74 12.7732 40.8774 12.0072 40.8774ZM9.43632 31.765C10.1328 31.765 10.8252 31.9143 11.4779 32.211C12.6797 32.7565 13.595 33.738 14.0587 34.9743C14.4765 36.0892 14.4646 37.2898 14.0845 38.3648C14.9402 37.9089 15.6187 37.1902 16.0266 36.2923C16.5161 35.2152 16.5559 34.0147 16.142 32.9078C15.7281 31.8008 14.9063 30.9228 13.8318 30.4331C12.7573 29.9453 11.5555 29.9035 10.4491 30.3196C9.62336 30.6302 8.92295 31.1797 8.41952 31.8725C8.7558 31.8008 9.09606 31.765 9.43433 31.765H9.43632Z" fill="white"/>
<path d="M13.8235 30.3533C13.4175 30.3533 13.0355 30.1025 12.8883 29.6983C12.735 29.2763 12.8843 28.8164 13.2265 28.5615C15.2143 26.931 18.9234 23.6281 21.6713 19.6383C21.9837 19.1863 22.6025 19.0709 23.0542 19.3834C23.5059 19.696 23.6213 20.3152 23.3089 20.7671C20.4078 24.9799 16.5157 28.4401 14.4542 30.1284C14.3667 30.2 14.2692 30.2558 14.1637 30.2936C14.0523 30.3354 13.9369 30.3533 13.8235 30.3533Z" fill="white"/>
<path d="M17.1357 33.732C16.9368 33.732 16.7358 33.6723 16.5607 33.5488C16.113 33.2303 16.0055 32.6091 16.3239 32.1612C19.3066 27.9504 23.3241 24.5141 25.4552 22.8417C25.887 22.5033 26.5118 22.577 26.852 23.009C27.1923 23.441 27.1167 24.0681 26.6849 24.4066C24.6393 26.0133 20.7851 29.3062 17.9496 33.3119C17.7566 33.5867 17.4481 33.732 17.1377 33.732H17.1357Z" fill="white"/>
</g>
<defs>
<clipPath id="clip0_411_357">
<rect width="77" height="81" fill="white"/>
</clipPath>
</defs>
</svg>
