<svg width="80" height="80" viewBox="0 0 80 80" fill="none" xmlns="http://www.w3.org/2000/svg">
<g clip-path="url(#clip0_411_59)">
<path d="M78.4993 41.2955C77.7825 41.2955 77.2038 40.7147 77.2038 40C77.2038 39.3286 77.1852 38.6592 77.1502 37.996C77.1131 37.2813 77.661 36.6716 78.3757 36.6325C79.0966 36.5954 79.7021 37.1433 79.7392 37.858C79.7762 38.5665 79.7968 39.2812 79.7968 40C79.7968 40.7188 79.216 41.2955 78.5013 41.2955H78.4993Z" fill="white"/>
<path d="M78.445 36.6304C79.1349 36.6304 79.7013 37.1659 79.7384 37.8579C79.7755 38.5664 79.7961 39.2811 79.7961 39.9999C79.7961 40.7188 79.2153 41.2955 78.5006 41.2955C77.7859 41.2955 77.2051 40.7146 77.2051 39.9999C77.2051 39.3285 77.1865 38.6591 77.1515 37.9959C77.1144 37.2812 77.6623 36.6716 78.377 36.6325C78.3996 36.6325 78.4244 36.6325 78.447 36.6325M78.445 36.4244C78.4182 36.4244 78.3914 36.4244 78.3646 36.4265C77.5367 36.4697 76.9002 37.1783 76.9435 38.0062C76.9785 38.6735 76.997 39.3429 76.997 39.9999C76.997 40.8279 77.6705 41.5014 78.4985 41.5014C79.3265 41.5014 80 40.8279 80 39.9999C80 39.2853 79.9814 38.5603 79.9423 37.8476C79.9011 37.0506 79.242 36.4244 78.4429 36.4244H78.445Z" fill="white"/>
<path d="M77.1836 31.2857C76.611 31.2857 76.0879 30.9046 75.9334 30.3259C75.5997 29.0798 75.194 27.8379 74.7285 26.6309C74.4711 25.9636 74.8047 25.2118 75.472 24.9544C76.1394 24.6969 76.8911 25.0306 77.1465 25.6979C77.6429 26.9872 78.0775 28.3178 78.4338 29.6524C78.6192 30.3444 78.2093 31.055 77.5193 31.2404C77.406 31.2713 77.2928 31.2857 77.1815 31.2857H77.1836ZM72.2858 20.312C71.8615 20.312 71.4475 20.104 71.1983 19.7229C70.496 18.6437 69.7257 17.5871 68.9101 16.582C68.459 16.0259 68.5455 15.2103 69.1016 14.7592C69.6577 14.3082 70.4754 14.3947 70.9244 14.9508C71.7956 16.0259 72.6174 17.1546 73.3692 18.31C73.7605 18.9094 73.5895 19.7126 72.9902 20.104C72.7719 20.2461 72.5268 20.314 72.2837 20.314L72.2858 20.312ZM64.2388 11.3856C63.9526 11.3856 63.6642 11.2908 63.4232 11.0952C62.4181 10.2795 61.3636 9.51131 60.2844 8.80898C59.685 8.41765 59.5161 7.61439 59.9054 7.01504C60.2967 6.41569 61.1 6.2468 61.6993 6.63607C62.8527 7.38783 63.9814 8.21168 65.0565 9.0829C65.6126 9.53396 65.6971 10.3496 65.246 10.9057C64.9906 11.2208 64.6158 11.3856 64.2388 11.3856ZM53.8439 5.36322C53.6894 5.36322 53.5308 5.33439 53.3784 5.27672C52.1736 4.8133 50.9316 4.40755 49.6896 4.07389C48.9976 3.88853 48.5898 3.17796 48.7752 2.48592C48.9605 1.79595 49.6732 1.38814 50.3631 1.57145C51.6937 1.92982 53.0201 2.36235 54.3094 2.85872C54.9788 3.11617 55.3104 3.86587 55.0529 4.53319C54.8552 5.0481 54.3629 5.36322 53.8419 5.36322H53.8439Z" fill="white"/>
<path d="M50.0268 1.52408C50.138 1.52408 50.2493 1.5385 50.3625 1.56733C51.6931 1.9257 53.0194 2.35823 54.3088 2.8546C54.9782 3.11205 55.3098 3.86175 55.0523 4.52907C54.8546 5.04398 54.3623 5.3591 53.8412 5.3591C53.6868 5.3591 53.5282 5.33027 53.3758 5.2726C52.1709 4.80918 50.9289 4.40343 49.687 4.06978C48.9949 3.88441 48.5871 3.17384 48.7725 2.4818C48.929 1.90305 49.4522 1.52202 50.0248 1.52202M60.9923 6.42599C61.2353 6.42599 61.4804 6.49396 61.6987 6.63607C62.8521 7.38783 63.9808 8.21168 65.0559 9.0829C65.612 9.53396 65.6964 10.3496 65.2454 10.9057C64.99 11.2208 64.6151 11.3856 64.2382 11.3856C63.9519 11.3856 63.6636 11.2908 63.4226 11.0952C62.4175 10.2795 61.363 9.51131 60.2837 8.80897C59.6844 8.41765 59.5155 7.61439 59.9048 7.01504C60.154 6.63401 60.568 6.42599 60.9923 6.42599ZM69.9166 14.4709C70.2935 14.4709 70.6684 14.6357 70.9238 14.9508C71.795 16.0259 72.6168 17.1546 73.3686 18.31C73.7599 18.9094 73.5889 19.7126 72.9896 20.104C72.7713 20.2461 72.5262 20.314 72.2831 20.314C71.8588 20.314 71.4449 20.106 71.1957 19.725C70.4933 18.6457 69.723 17.5892 68.9074 16.5841C68.4563 16.028 68.5428 15.2124 69.0989 14.7613C69.3399 14.5677 69.6283 14.4729 69.9146 14.4729M75.939 24.8679C76.4601 24.8679 76.9502 25.183 77.15 25.6979C77.6464 26.9872 78.081 28.3178 78.4373 29.6524C78.6227 30.3444 78.2128 31.055 77.5228 31.2404C77.4095 31.2713 77.2963 31.2857 77.185 31.2857C76.6125 31.2857 76.0893 30.9046 75.9348 30.3259C75.6012 29.0798 75.1954 27.8379 74.73 26.6309C74.4725 25.9636 74.8062 25.2118 75.4735 24.9544C75.6259 24.8947 75.7845 24.8679 75.939 24.8679ZM50.0268 1.31812C49.3471 1.31812 48.7519 1.77535 48.5748 2.43031C48.3606 3.22945 48.8363 4.05536 49.6355 4.27162C50.8692 4.60322 52.1029 5.00485 53.3037 5.46826C53.4787 5.53623 53.66 5.56918 53.8433 5.56918C54.4612 5.56918 55.0235 5.18197 55.2459 4.60734C55.5425 3.83498 55.1573 2.96376 54.385 2.66511C53.0854 2.16462 51.7507 1.73004 50.4181 1.37167C50.2904 1.33665 50.1607 1.32017 50.0289 1.32017L50.0268 1.31812ZM60.9923 6.22003C60.4815 6.22003 60.0119 6.47542 59.7318 6.90176C59.2787 7.59585 59.4764 8.52887 60.1705 8.97992C61.2415 9.67814 62.2919 10.4423 63.2929 11.2538C63.5606 11.47 63.8963 11.5895 64.2382 11.5895C64.6934 11.5895 65.1197 11.3876 65.406 11.0334C65.6594 10.7224 65.7747 10.329 65.7335 9.93147C65.6923 9.5319 65.4967 9.17353 65.1857 8.92019C64.1064 8.04485 62.9716 7.21894 61.812 6.461C61.5669 6.30241 61.2827 6.21797 60.9923 6.21797V6.22003ZM69.9166 14.2649C69.5747 14.2649 69.239 14.3844 68.9713 14.6006C68.3286 15.1217 68.2277 16.0712 68.7509 16.7138C69.5603 17.7127 70.3244 18.7631 71.0268 19.8383C71.3048 20.2646 71.7765 20.52 72.2872 20.52C72.5777 20.52 72.8619 20.4356 73.107 20.277C73.4427 20.0587 73.6734 19.7209 73.7578 19.3275C73.8423 18.9341 73.7661 18.5345 73.5457 18.1967C72.7898 17.0372 71.9639 15.9023 71.0885 14.821C70.8023 14.4668 70.3759 14.2649 69.9207 14.2649H69.9166ZM75.939 24.6619C75.7536 24.6619 75.5723 24.6949 75.3993 24.7628C75.0245 24.907 74.7279 25.1892 74.5652 25.5558C74.4025 25.9224 74.3922 26.3302 74.5364 26.7051C74.9977 27.9038 75.4014 29.1395 75.733 30.3794C75.9081 31.0344 76.5054 31.4916 77.183 31.4916C77.3127 31.4916 77.4446 31.4731 77.5743 31.4401C77.9615 31.3372 78.2849 31.0879 78.4867 30.7399C78.6865 30.3918 78.7401 29.9881 78.635 29.5988C78.2746 28.258 77.84 26.9213 77.3395 25.6238C77.1171 25.0471 76.5548 24.6619 75.9369 24.6619H75.939Z" fill="white"/>
<path d="M42.0727 2.85255C41.3394 2.81548 40.6701 2.79694 39.9986 2.79694C39.2819 2.79694 38.7031 2.21613 38.7031 1.50144C38.7031 0.786747 39.2839 0.205933 39.9986 0.205933C40.7133 0.205933 41.4321 0.224469 42.1406 0.263602C42.8553 0.300675 43.4032 0.912384 43.3661 1.62707C43.329 2.31911 42.7585 2.85461 42.0727 2.85461V2.85255Z" fill="white"/>
<path d="M39.9995 0.205931C40.7183 0.205931 41.433 0.224468 42.1415 0.263601C42.8562 0.300674 43.4041 0.912383 43.367 1.62707C43.3299 2.31911 42.7594 2.85461 42.0736 2.85461C41.3403 2.81754 40.671 2.799 39.9995 2.799C39.2828 2.799 38.704 2.21819 38.704 1.5035C38.704 0.788806 39.2848 0.207991 39.9995 0.207991M39.9995 -3.11383e-05C39.1715 -3.11383e-05 38.498 0.673467 38.498 1.50144C38.498 2.32941 39.1715 3.0029 39.9995 3.0029C40.673 3.0029 41.328 3.01938 42.0633 3.05645H42.0694H42.0756C42.8748 3.05645 43.5318 2.43239 43.575 1.63325C43.5956 1.23163 43.4597 0.848535 43.1919 0.549889C42.9242 0.251243 42.5555 0.076175 42.1539 0.0535191C41.4495 0.0164459 40.7245 -0.00415039 39.9995 -0.00415039V-3.11383e-05Z" fill="white"/>
<path d="M39.9991 79.794C18.0579 79.794 0.205078 61.9432 0.205078 40C0.205078 18.0567 18.0579 0.205933 39.9991 0.205933C40.7159 0.205933 41.2946 0.786747 41.2946 1.50144C41.2946 2.21613 40.7138 2.79694 39.9991 2.79694C19.4873 2.799 2.79815 19.4861 2.79815 40C2.79815 60.5138 19.4873 77.203 39.9991 77.203C60.5109 77.203 77.2021 60.5138 77.2021 40C77.2021 39.2832 77.783 38.7045 78.4977 38.7045C79.2123 38.7045 79.7932 39.2853 79.7932 40C79.7932 61.9432 61.9403 79.794 39.9991 79.794Z" fill="white"/>
<path d="M40 0.205963C40.7168 0.205963 41.2955 0.786777 41.2955 1.50147C41.2955 2.21616 40.7147 2.79697 40 2.79697C19.4882 2.79903 2.79903 19.4861 2.79903 40C2.79903 60.5139 19.4882 77.203 40 77.203C60.5118 77.203 77.203 60.5139 77.203 40C77.203 39.2832 77.7838 38.7045 78.4985 38.7045C79.2132 38.7045 79.794 39.2853 79.794 40C79.794 61.9433 61.9412 79.794 40 79.794C18.0588 79.794 0.205963 61.9433 0.205963 40C0.205963 18.0567 18.0588 0.205963 40 0.205963ZM40 0C17.9435 0 0 17.9435 0 40C0 62.0565 17.9435 80 40 80C62.0565 80 80 62.0565 80 40C80 39.172 79.3265 38.4985 78.4985 38.4985C77.6706 38.4985 76.9971 39.172 76.9971 40C76.9971 60.4006 60.4006 76.9971 40 76.9971C19.5994 76.9971 3.00499 60.4006 3.00499 40C3.00499 19.5994 19.6015 3.00499 40 3.00499C40.828 3.00499 41.5015 2.3315 41.5015 1.50353C41.5015 0.675557 40.828 0.00205963 40 0.00205963V0Z" fill="white"/>
<path d="M56.5779 38.3976C50.228 38.3976 45.0625 33.232 45.0625 26.8822C45.0625 20.5324 50.228 15.3668 56.5779 15.3668C62.9277 15.3668 68.0932 20.5324 68.0932 26.8822C68.0932 33.232 62.9277 38.3976 56.5779 38.3976ZM56.5779 17.9578C51.6574 17.9578 47.6535 21.9617 47.6535 26.8801C47.6535 31.7985 51.6574 35.8024 56.5779 35.8024C61.4983 35.8024 65.5002 31.7985 65.5002 26.8801C65.5002 21.9617 61.4963 17.9578 56.5779 17.9578Z" fill="white"/>
<path d="M21.4505 60.9896C15.3561 60.9896 10.3965 56.03 10.3965 49.9356C10.3965 43.8412 15.3561 38.8816 21.4505 38.8816C27.5449 38.8816 32.5045 43.8412 32.5045 49.9356C32.5045 56.03 27.5449 60.9896 21.4505 60.9896ZM21.4505 41.4726C16.7854 41.4726 12.9896 45.2685 12.9896 49.9335C12.9896 54.5986 16.7854 58.3945 21.4505 58.3945C26.1156 58.3945 29.9114 54.5986 29.9114 49.9335C29.9114 45.2685 26.1156 41.4726 21.4505 41.4726Z" fill="white"/>
<path d="M44.2291 72.6389C43.741 72.6389 43.2879 72.3629 43.0675 71.9181C42.8224 71.4196 42.9192 70.8203 43.3126 70.4269L43.881 69.8584C43.5556 69.2344 43.2858 68.5856 43.0737 67.9183H42.1757C40.8246 67.9183 39.7227 66.8184 39.7227 65.4652V63.0967C39.7227 61.7456 40.8225 60.6437 42.1757 60.6437H43.0737C43.2858 59.9763 43.5556 59.3276 43.881 58.7014L43.2446 58.065C42.289 57.1093 42.289 55.5543 43.2446 54.5987L44.9191 52.9242C45.8459 51.9973 47.4607 51.9973 48.3875 52.9242L49.0239 53.5606C49.648 53.2352 50.2968 52.9654 50.9641 52.7532V51.8552C50.9641 50.5041 52.0639 49.4022 53.4171 49.4022H55.7857C57.1368 49.4022 58.2387 50.5021 58.2387 51.8552V52.7532C58.906 52.9633 59.5548 53.2331 60.1789 53.5606L60.8153 52.9242C61.7421 51.9973 63.3569 51.9973 64.2837 52.9242L65.9582 54.5987C66.9138 55.5564 66.9138 57.1114 65.9582 58.0671L65.3197 58.7056C65.4515 58.9589 65.5751 59.2205 65.6904 59.4882C65.884 59.9331 65.8119 60.4501 65.5051 60.8249C60.1912 67.3271 52.6962 71.5185 44.4021 72.6266C44.3445 72.6348 44.2868 72.6389 44.2291 72.6389ZM42.3178 65.3231H44.0685C44.6761 65.3231 45.2033 65.7454 45.3331 66.3385C45.572 67.4137 45.9963 68.4352 46.5936 69.3724C46.6368 69.4403 46.6739 69.5104 46.7027 69.5845C53.0196 68.1634 58.7001 64.7609 62.9697 59.8116C62.8543 59.5932 62.7328 59.3852 62.6072 59.1875C62.2797 58.6747 62.3538 58.0032 62.7843 57.5748L64.0262 56.3329L62.5495 54.8561L61.3096 56.096C60.8791 56.5244 60.2077 56.5986 59.6969 56.2731C58.7577 55.6738 57.7361 55.2495 56.6631 55.0126C56.0699 54.8808 55.6477 54.3556 55.6477 53.746V51.9953H53.5592V53.746C53.5592 54.3536 53.137 54.8808 52.5438 55.0126C51.4708 55.2495 50.4492 55.6738 49.51 56.2731C48.9972 56.6006 48.3278 56.5265 47.8973 56.0981L46.6554 54.8582L45.1786 56.3349L46.4185 57.5769C46.849 58.0073 46.921 58.6767 46.5956 59.1896C45.9963 60.1288 45.5741 61.1483 45.3351 62.2234C45.2033 62.8166 44.6781 63.2388 44.0705 63.2388H42.3198V65.3252L42.3178 65.3231Z" fill="white"/>
<path d="M52.5533 70.3341C52.3782 70.3341 52.2032 70.2991 52.0405 70.2291C49.6616 69.2034 48.123 66.8698 48.123 64.2809C48.123 60.7095 51.0292 57.8033 54.6006 57.8033C58.172 57.8033 61.0781 60.7095 61.0781 64.2809C61.0781 64.4312 61.0616 64.5775 61.0431 64.7237C61.0122 65.0779 60.8268 65.5002 60.5488 65.7226C58.2585 67.5557 55.7416 69.0716 53.0703 70.227C52.9055 70.2991 52.7304 70.3341 52.5554 70.3341H52.5533ZM54.6006 60.3964C52.4586 60.3964 50.7161 62.1389 50.7161 64.2809C50.7161 65.6526 51.437 66.9048 52.5904 67.603C54.6685 66.6536 56.6396 65.4652 58.4624 64.0626C58.3203 61.9803 56.6417 60.3964 54.5985 60.3964H54.6006Z" fill="white"/>
<path d="M56.5784 43.7342C47.2854 43.7342 39.7266 36.1733 39.7266 26.8823C39.7266 18.685 45.5883 11.7111 53.662 10.2982C53.9318 10.2529 54.2078 10.29 54.455 10.4115C63.4885 14.8314 69.9289 22.9814 72.1245 32.7687C72.1842 33.0365 72.1574 33.3145 72.0503 33.5678C69.3769 39.7447 63.3052 43.7362 56.5805 43.7362L56.5784 43.7342ZM53.697 12.9283C47.0794 14.2836 42.3176 20.0855 42.3176 26.8802C42.3176 34.7439 48.7148 41.1411 56.5784 41.1411C62.1291 41.1411 67.1525 37.9281 69.4964 32.917C67.4203 24.2233 61.6925 16.9776 53.697 12.9283Z" fill="white"/>
<path d="M58.2824 47.7483H54.8696C53.2363 47.7483 51.9078 46.4199 51.9078 44.7866V43.0688C50.703 42.7208 49.5393 42.2388 48.4353 41.625L47.216 42.8423C46.0606 43.9977 44.1801 43.9977 43.0267 42.8423L40.6149 40.4305C39.4595 39.275 39.4595 37.3966 40.6149 36.2412L41.8342 35.0219C41.2204 33.9179 40.7385 32.7542 40.3904 31.5494H38.6727C37.0394 31.5494 35.7109 30.2209 35.7109 28.5876V25.1748C35.7109 23.5415 37.0394 22.2131 38.6727 22.2131H40.3904C40.7385 21.0061 41.2204 19.8445 41.8342 18.7405L40.6149 17.5212C40.0547 16.9631 39.7478 16.2196 39.7478 15.4266C39.7478 14.6336 40.0567 13.8922 40.6149 13.332L43.0267 10.9201C44.1451 9.80176 46.0976 9.7997 47.216 10.9201L48.4332 12.1374C49.5846 11.4989 50.7956 11.0025 52.0561 10.6524C52.1591 10.4567 52.3115 10.2878 52.5031 10.1663C52.8759 9.9274 53.3434 9.8965 53.743 10.0798C63.0113 14.3453 69.8781 22.8165 72.1128 32.7419C72.1725 33.0096 72.1457 33.2897 72.0366 33.541C71.8162 34.0518 71.5731 34.5461 71.3136 35.0198L72.3991 36.1073C72.6133 36.3215 72.7451 36.6016 72.7739 36.9023C72.8522 37.7303 72.8975 38.6036 72.9119 39.4975C72.916 39.8476 72.7801 40.1854 72.5329 40.4325L70.1232 42.8423C68.9698 43.9977 67.0873 43.9977 65.9339 42.8423L64.7167 41.625C63.6106 42.2368 62.449 42.7208 61.2441 43.0688V44.7866C61.2441 46.4199 59.9157 47.7483 58.2824 47.7483ZM48.2335 38.7004C48.4744 38.7004 48.7154 38.7663 48.9296 38.9043C50.3405 39.8043 51.8728 40.4408 53.4855 40.7971C54.0787 40.9289 54.5009 41.4541 54.5009 42.0637V44.7886C54.5009 44.9925 54.6677 45.1594 54.8716 45.1594H58.2844C58.4883 45.1594 58.6552 44.9925 58.6552 44.7886V42.0637C58.6552 41.4562 59.0774 40.9289 59.6706 40.7971C61.2833 40.4408 62.8156 39.8043 64.2265 38.9043C64.7372 38.5768 65.4107 38.6509 65.8392 39.0814L67.7711 41.0133C67.9152 41.1575 68.15 41.1575 68.2942 41.0133L70.3127 38.9949C70.2982 38.5232 70.2735 38.0578 70.2385 37.6088L68.7762 36.1464C68.3457 35.716 68.2736 35.0466 68.599 34.5338C68.9224 34.0271 69.2211 33.4792 69.4909 32.8984C67.423 24.2933 61.5675 16.9198 53.6606 12.92C53.605 12.9406 53.5473 12.9571 53.4855 12.9715C51.8728 13.3299 50.3405 13.9663 48.9296 14.8643C48.4168 15.1897 47.7474 15.1177 47.3169 14.6872L45.385 12.7553C45.2038 12.5761 45.041 12.5761 44.8619 12.7553L42.448 15.1691C42.3574 15.2598 42.3388 15.3607 42.3388 15.4307C42.3388 15.5007 42.3574 15.6017 42.4459 15.6923L44.3778 17.6242C44.8083 18.0547 44.8804 18.7241 44.555 19.239C43.657 20.6478 43.0185 22.1801 42.6622 23.7949C42.5304 24.388 42.0052 24.8103 41.3955 24.8103H38.6706C38.4667 24.8103 38.2999 24.9771 38.2999 25.181V28.5938C38.2999 28.7977 38.4667 28.9645 38.6706 28.9645H41.3955C42.0031 28.9645 42.5304 29.3867 42.6622 29.9799C43.0185 31.5926 43.6549 33.125 44.555 34.5358C44.8825 35.0487 44.8083 35.718 44.3778 36.1485L42.4459 38.0804C42.3017 38.2246 42.3017 38.4594 42.4459 38.6036L44.8577 41.0154C45.0019 41.1596 45.2367 41.1596 45.3809 41.0154L47.3128 39.0835C47.562 38.8343 47.8957 38.7045 48.2293 38.7045L48.2335 38.7004Z" fill="white"/>
<path d="M21.4518 66.7875C21.4189 66.7875 21.2891 66.7813 21.2582 66.7792C21.0152 66.7607 20.6918 66.6701 20.4961 66.5259C12.4492 60.5983 7.56992 51.4906 7.11269 41.5385C7.10033 41.2666 7.17242 40.9989 7.32071 40.7723C10.4472 35.9569 15.7322 33.0837 21.4539 33.0837C30.7469 33.0837 38.3057 40.6426 38.3057 49.9356C38.3057 59.2286 30.7469 66.7875 21.4539 66.7875H21.4518ZM9.72223 41.8392C10.2516 50.7059 14.5953 58.8105 21.701 64.1903C29.4493 64.0585 35.7106 57.7128 35.7106 49.9335C35.7106 42.1543 29.3134 35.6727 21.4497 35.6727C16.7456 35.6727 12.3936 37.9692 9.72223 41.8372V41.8392Z" fill="white"/>
<path d="M24.8221 69.0531C24.6079 69.0531 24.3937 68.9995 24.2001 68.8945C13.6342 63.1049 7.07227 52.0344 7.07227 40C7.07227 38.2514 7.21644 36.478 7.49861 34.7253C7.54186 34.4596 7.66544 34.2124 7.85698 34.0209C9.06804 32.8078 10.9732 32.8552 12.0916 33.9735L13.3109 35.1928C14.4148 34.5811 15.5785 34.0971 16.7834 33.749V32.0292C16.7834 30.396 18.1119 29.0675 19.7451 29.0675H23.1579C24.7912 29.0675 26.1197 30.396 26.1197 32.0292V33.747C27.3266 34.0951 28.4883 34.577 29.5922 35.1908L30.8115 33.9715C31.932 32.8531 33.8824 32.8531 35.0008 33.9715L37.4147 36.3854C38.5701 37.5408 38.5701 39.4192 37.4147 40.5746L36.1954 41.7939C36.8071 42.8979 37.2911 44.0616 37.6392 45.2665H39.3569C40.9902 45.2665 42.3186 46.5949 42.3186 48.2282V51.641C42.3186 53.2743 40.9902 54.6027 39.3569 54.6027H37.6371C37.289 55.8076 36.8071 56.9713 36.1933 58.0753L37.4126 59.2946C37.9728 59.8548 38.2797 60.5983 38.2797 61.3892C38.2797 62.1801 37.9708 62.9236 37.4126 63.4839L34.9987 65.8957C33.8804 67.0141 31.9299 67.0141 30.8095 65.8957L29.5902 64.6784C28.4862 65.2901 27.3246 65.7742 26.1176 66.1222V67.7576C26.1176 68.2148 25.8767 68.6391 25.4833 68.8739C25.2794 68.9954 25.0507 69.0551 24.8221 69.0551V69.0531ZM9.97222 35.6995C9.76832 37.133 9.66533 38.5768 9.66533 40C9.66533 50.3393 14.9236 59.9063 23.5287 65.4755V65.113C23.5287 64.5054 23.9509 63.9782 24.5441 63.8484C26.1588 63.49 27.6912 62.8536 29.1 61.9556C29.6128 61.6281 30.2843 61.7023 30.7127 62.1327L32.6446 64.0647C32.7888 64.2088 33.0236 64.2088 33.1677 64.0647L35.5816 61.6528C35.7258 61.5087 35.7258 61.2739 35.5816 61.1297L33.6497 59.1978C33.2192 58.7673 33.1471 58.0979 33.4726 57.5851C34.3726 56.1742 35.009 54.6419 35.3654 53.0292C35.4972 52.436 36.0224 52.0138 36.63 52.0138H39.3548C39.5588 52.0138 39.7235 51.847 39.7235 51.6431V48.2303C39.7235 48.0264 39.5588 47.8595 39.3548 47.8595H36.63C36.0224 47.8595 35.4951 47.4373 35.3654 46.8441C35.007 45.2315 34.3706 43.697 33.4726 42.2882C33.1451 41.7754 33.2192 41.104 33.6497 40.6756L35.5816 38.7436C35.7258 38.5995 35.7258 38.3647 35.5816 38.2205L33.1677 35.8066C32.9885 35.6274 32.8238 35.6274 32.6446 35.8066L30.7127 37.7385C30.2822 38.169 29.6128 38.2431 29.1 37.9157C27.6912 37.0177 26.1588 36.3792 24.5441 36.0229C23.9509 35.891 23.5287 35.3658 23.5287 34.7582V32.0334C23.5287 31.8295 23.3639 31.6626 23.16 31.6626H19.7472C19.5433 31.6626 19.3765 31.8274 19.3765 32.0334V34.7582C19.3765 35.3658 18.9542 35.8931 18.3611 36.0229C16.7484 36.3812 15.216 37.0177 13.8052 37.9157C13.2923 38.2411 12.6209 38.1669 12.1925 37.7385L10.2606 35.8066C10.1823 35.7283 10.0731 35.6933 9.97428 35.6995H9.97222Z" fill="white"/>
<path d="M39.9996 72.9293C21.844 72.9293 7.07031 58.1576 7.07031 40C7.07031 21.8423 21.844 7.07068 39.9996 7.07068C58.1552 7.07068 72.9289 21.8423 72.9289 40C72.9289 58.1576 58.1573 72.9293 39.9996 72.9293ZM39.9996 9.66375C23.2734 9.66375 9.66338 23.2717 9.66338 40C9.66338 56.7283 23.2713 70.3362 39.9996 70.3362C56.7279 70.3362 70.3358 56.7283 70.3358 40C70.3358 23.2717 56.7279 9.66375 39.9996 9.66375Z" fill="white"/>
<path d="M40.0005 7.07071C58.1582 7.07071 72.9298 21.8423 72.9298 40C72.9298 58.1577 58.1582 72.9293 40.0005 72.9293C21.8428 72.9293 7.0712 58.1577 7.0712 40C7.0712 21.8423 21.8449 7.07071 40.0005 7.07071ZM40.0005 70.3362C56.7288 70.3362 70.3367 56.7283 70.3367 40C70.3367 23.2717 56.7288 9.66378 40.0005 9.66378C23.2722 9.66378 9.66427 23.2738 9.66427 40C9.66427 56.7262 23.2722 70.3362 40.0005 70.3362ZM40.0005 6.86475C21.7296 6.86475 6.86523 21.7291 6.86523 40C6.86523 58.271 21.7296 73.1353 40.0005 73.1353C58.2714 73.1353 73.1358 58.271 73.1358 40C73.1358 21.7291 58.2714 6.86475 40.0005 6.86475ZM40.0005 70.1303C23.3876 70.1303 9.87023 56.613 9.87023 40C9.87023 23.3871 23.3876 9.86974 40.0005 9.86974C56.6134 9.86974 70.1308 23.3871 70.1308 40C70.1308 56.613 56.6134 70.1303 40.0005 70.1303Z" fill="white"/>
</g>
<defs>
<clipPath id="clip0_411_59">
<rect width="80" height="80" fill="white"/>
</clipPath>
</defs>
</svg>
