<svg width="40" height="21" viewBox="0 0 40 21" fill="none" xmlns="http://www.w3.org/2000/svg">
<g clip-path="url(#clip0_141_188)">
<mask id="mask0_141_188" style="mask-type:luminance" maskUnits="userSpaceOnUse" x="0" y="0" width="40" height="21">
<path d="M40 0.0805664H0V20.0806H40V0.0805664Z" fill="white"/>
</mask>
<g mask="url(#mask0_141_188)">
<path d="M11.4217 4.72363H0V5.89907H11.4217V4.72363Z" fill="white"/>
<path d="M11.422 9.48438H2.89453V10.6598H11.422V9.48438Z" fill="white"/>
<path d="M11.4215 14.2329H6.79297V15.4083H11.4215V14.2329Z" fill="white"/>
<path d="M36.819 0.0805664H16.523C14.7709 0.0805664 13.3477 1.47933 13.3477 3.20134V16.9598C13.3477 18.6818 14.7709 20.0806 16.523 20.0806H36.819C38.5712 20.0806 39.9944 18.6818 39.9944 16.9598V3.20134C39.9944 1.47933 38.5712 0.0805664 36.819 0.0805664ZM36.819 1.256C37.1061 1.256 37.3752 1.32065 37.6263 1.42644L29.3799 9.28421L27.2331 11.3001L26.683 11.8173L26.091 11.2589L24.4046 9.67798L23.992 9.29009L15.7097 1.43231C15.9549 1.32065 16.23 1.256 16.517 1.256H36.819ZM14.5377 3.20134C14.5377 2.83696 14.6453 2.50196 14.8247 2.2081L23.1249 10.0953L14.8426 17.9765C14.6513 17.6768 14.5377 17.3301 14.5377 16.9539V3.20134ZM16.517 18.9051C16.242 18.9051 15.9788 18.8522 15.7396 18.7523L23.992 10.9181L26.683 13.4452L29.374 10.9122L37.5964 18.7465C37.3572 18.8464 37.0941 18.9051 36.819 18.9051H16.523H16.517ZM38.7984 16.9598C38.7984 17.3359 38.6848 17.6827 38.4994 17.9824L30.2411 10.107L38.5114 2.21398C38.6908 2.50784 38.7984 2.84284 38.7984 3.2131V16.9598Z" fill="white"/>
</g>
</g>
<defs>
<clipPath id="clip0_141_188">
<rect width="40" height="21" fill="white"/>
</clipPath>
</defs>
</svg>
