<svg width="81" height="81" viewBox="0 0 81 81" fill="none" xmlns="http://www.w3.org/2000/svg">
<g clip-path="url(#clip0_411_404)">
<path d="M48.0639 17.9608H15.2846C14.5033 17.9608 13.8691 17.3267 13.8691 16.5454V11.5027C13.8691 8.63597 16.2018 6.30524 19.0666 6.30524H20.1725V1.41542C20.1725 0.63411 20.8066 0 21.5879 0H41.7605C42.5419 0 43.176 0.63411 43.176 1.41542V6.30335H44.2819C47.1486 6.30335 49.4793 8.63597 49.4793 11.5008V16.5435C49.4793 17.3248 48.8452 17.9589 48.0639 17.9589V17.9608ZM16.7 15.1299H46.6504V11.5027C46.6504 10.1967 45.5879 9.13609 44.2838 9.13609H41.7624C40.9811 9.13609 40.347 8.50198 40.347 7.72066V2.83085H23.0052V7.71878C23.0052 8.50009 22.3711 9.1342 21.5898 9.1342H19.0685C17.7625 9.1342 16.7019 10.1967 16.7019 11.5008V15.1281L16.7 15.1299Z" fill="white"/>
<path d="M35.456 11.6555H27.892C27.1107 11.6555 26.4766 11.0214 26.4766 10.2401V7.71877C26.4766 6.93745 27.1107 6.30334 27.892 6.30334C28.6733 6.30334 29.3074 6.93745 29.3074 7.71877V8.82469H34.0406V7.71877C34.0406 6.93745 34.6747 6.30334 35.456 6.30334C36.2373 6.30334 36.8714 6.93745 36.8714 7.71877V10.2401C36.8714 11.0214 36.2373 11.6555 35.456 11.6555Z" fill="white"/>
<path d="M43.0213 81H3.93677C1.76645 81 0 79.2336 0 77.0633V14.024C0 11.8537 1.76645 10.0873 3.93677 10.0873H7.71878C8.50009 10.0873 9.1342 10.7214 9.1342 11.5027C9.1342 12.284 8.50009 12.9181 7.71878 12.9181H3.93677C3.32719 12.9181 2.83085 13.4145 2.83085 14.024V77.0633C2.83085 77.6728 3.32719 78.1692 3.93677 78.1692H43.0213C43.8027 78.1692 44.4368 78.8033 44.4368 79.5846C44.4368 80.3659 43.8027 81 43.0213 81Z" fill="white"/>
<path d="M61.9352 28.0461C61.1538 28.0461 60.5197 27.412 60.5197 26.6307V14.0221C60.5197 13.4125 60.0234 12.9162 59.4138 12.9162H48.0678C47.2865 12.9162 46.6523 12.2821 46.6523 11.5008C46.6523 10.7194 47.2865 10.0853 48.0678 10.0853H59.4138C61.5841 10.0853 63.3506 11.8518 63.3506 14.0221V26.6307C63.3506 27.412 62.7165 28.0461 61.9352 28.0461Z" fill="white"/>
<path d="M43.0227 35.6101H24.1107C23.3294 35.6101 22.6953 34.976 22.6953 34.1947C22.6953 33.4134 23.3294 32.7793 24.1107 32.7793H43.0227C43.804 32.7793 44.4381 33.4134 44.4381 34.1947C44.4381 34.976 43.804 35.6101 43.0227 35.6101Z" fill="white"/>
<path d="M34.1961 46.958H24.1107C23.3294 46.958 22.6953 46.3239 22.6953 45.5426C22.6953 44.7613 23.3294 44.1272 24.1107 44.1272H34.1961C34.9774 44.1272 35.6115 44.7613 35.6115 45.5426C35.6115 46.3239 34.9774 46.958 34.1961 46.958Z" fill="white"/>
<path d="M31.6748 58.3059H24.1107C23.3294 58.3059 22.6953 57.6718 22.6953 56.8905C22.6953 56.1092 23.3294 55.4751 24.1107 55.4751H31.6748C32.4561 55.4751 33.0902 56.1092 33.0902 56.8905C33.0902 57.6718 32.4561 58.3059 31.6748 58.3059Z" fill="white"/>
<path d="M15.2855 36.8727C13.8097 36.8727 12.6094 35.6724 12.6094 34.1966C12.6094 32.7208 13.8097 31.5205 15.2855 31.5205C16.7613 31.5205 17.9616 32.7208 17.9616 34.1966C17.9616 35.6724 16.7613 36.8727 15.2855 36.8727ZM15.2855 34.0419C15.2005 34.0419 15.1307 34.1117 15.1307 34.1966C15.1307 34.2815 15.2005 34.3514 15.2855 34.3514C15.3704 34.3514 15.4402 34.2815 15.4402 34.1966C15.4402 34.1117 15.3704 34.0419 15.2855 34.0419Z" fill="white"/>
<path d="M15.2855 48.2188C13.8097 48.2188 12.6094 47.0185 12.6094 45.5427C12.6094 44.0669 13.8097 42.8666 15.2855 42.8666C16.7613 42.8666 17.9616 44.0669 17.9616 45.5427C17.9616 47.0185 16.7613 48.2188 15.2855 48.2188ZM15.2855 45.3879C15.2005 45.3879 15.1307 45.4577 15.1307 45.5427C15.1307 45.6276 15.2005 45.6974 15.2855 45.6974C15.3704 45.6974 15.4402 45.6276 15.4402 45.5427C15.4402 45.4577 15.3704 45.3879 15.2855 45.3879Z" fill="white"/>
<path d="M15.2855 59.5667C13.8097 59.5667 12.6094 58.3664 12.6094 56.8906C12.6094 55.4148 13.8097 54.2145 15.2855 54.2145C16.7613 54.2145 17.9616 55.4148 17.9616 56.8906C17.9616 58.3664 16.7613 59.5667 15.2855 59.5667ZM15.2855 56.7358C15.2005 56.7358 15.1307 56.8057 15.1307 56.8906C15.1307 56.9755 15.2005 57.0453 15.2855 57.0453C15.3704 57.0453 15.4402 56.9755 15.4402 56.8906C15.4402 56.8057 15.3704 56.7358 15.2855 56.7358Z" fill="white"/>
<path d="M59.4123 77.2161C47.5095 77.2161 37.8242 67.5328 37.8242 55.6281C37.8242 43.7234 47.5076 34.04 59.4123 34.04C71.3169 34.04 81.0003 43.7253 81.0003 55.6281C81.0003 67.5309 71.315 77.2161 59.4123 77.2161ZM59.4123 36.8728C49.0702 36.8728 40.6551 45.2879 40.6551 55.63C40.6551 65.972 49.0702 74.3872 59.4123 74.3872C69.7543 74.3872 78.1695 65.972 78.1695 55.63C78.1695 45.2879 69.7543 36.8728 59.4123 36.8728Z" fill="white"/>
<path d="M57.9701 64.2489C57.5964 64.2489 57.2359 64.1017 56.9698 63.8337L49.7663 56.6302C49.2133 56.0772 49.2133 55.1808 49.7663 54.6278C50.3192 54.0749 51.2157 54.0749 51.7686 54.6278L57.7795 60.6387L66.8986 47.6111C67.3477 46.9713 68.2291 46.8147 68.8707 47.2638C69.5105 47.713 69.6671 48.5943 69.218 49.236L59.1326 63.645C58.8929 63.9885 58.5136 64.2074 58.0965 64.2433C58.055 64.247 58.0135 64.2489 57.972 64.2489H57.9701Z" fill="white"/>
</g>
<defs>
<clipPath id="clip0_411_404">
<rect width="81" height="81" fill="white"/>
</clipPath>
</defs>
</svg>
