<svg width="126" height="58" viewBox="0 0 126 58" fill="none" xmlns="http://www.w3.org/2000/svg">
<path d="M125.729 30.0464C125.524 29.7596 125.197 29.5932 124.839 29.5991L96.8797 30.2277C89.7174 20.9881 77.3484 20.9881 76.8001 20.994L75.1492 21.0327C73.9055 19.4917 72.3675 18.0593 70.5621 16.771C65.8725 13.4217 60.2794 11.6519 54.3891 11.6519H45.1495L33.0673 0.358727C32.6379 -0.0424773 31.9662 -0.0201881 31.5635 0.40925C31.1623 0.838687 31.1846 1.51182 31.6141 1.91302L42.032 11.6504H27.5188C27.0374 11.6504 26.6168 11.9729 26.492 12.438L23.8589 22.214L19.4709 22.315C18.884 22.3284 18.4189 22.8158 18.4323 23.4027C18.4456 23.9897 18.9315 24.4533 19.52 24.4414L23.2824 24.3552L21.2422 31.9291L16.8319 32.0286C16.3549 32.039 15.9433 32.3674 15.8244 32.8296L13.2612 42.8983L4.92354 42.9028C4.45993 42.9028 4.04981 43.2044 3.91013 43.6458L0.123945 55.6418C0.021415 55.9657 0.0793668 56.3179 0.279969 56.5913C0.480572 56.8647 0.798563 57.0267 1.13736 57.0267H98.3522C99.5752 57.0267 100.788 56.7399 101.859 56.199C111.164 51.4975 117.185 44.9251 120.598 40.24C124.306 35.1476 125.798 31.201 125.859 31.0345C125.982 30.7047 125.933 30.3347 125.728 30.0464H125.729ZM28.3346 13.7783H54.3891C59.8336 13.7783 64.9987 15.4113 69.3258 18.5021C70.4611 19.3119 71.4775 20.1812 72.3675 21.098L26.0759 22.1635L28.3346 13.7783ZM25.4994 24.3032L76.8328 23.1219H76.8373C77.1241 23.1219 87.5465 23.1992 94.1396 30.2901L23.4592 31.8786L25.4994 24.3032ZM100.901 54.3C100.125 54.6923 99.2438 54.8988 98.3522 54.8988H2.58913L5.70664 45.0277L14.0918 45.0232C14.5777 45.0232 15.0027 44.6933 15.1216 44.2223L17.6893 34.1357L21.9004 34.0406C21.9539 34.0495 22.0074 34.054 22.0609 34.054C22.1293 34.054 22.1976 34.0451 22.263 34.0317L123.217 31.7627C121.282 35.8104 114.818 47.2685 100.902 54.2985L100.901 54.3Z" fill="white"/>
<path d="M98.3529 57.0995H1.13804C0.77696 57.0995 0.433707 56.9257 0.219731 56.6344C0.00575526 56.3432 -0.0566544 55.9628 0.0533055 55.6195L3.84246 43.622C3.99254 43.1465 4.42792 42.8271 4.9272 42.8271L13.2069 42.8226L15.7553 32.8103C15.8801 32.317 16.3244 31.9648 16.8326 31.9529L21.1879 31.8549L23.188 24.4296L19.5236 24.5143C19.5162 24.5143 19.5073 24.5143 19.4998 24.5143C18.8832 24.5143 18.375 24.021 18.3601 23.4028C18.3527 23.0997 18.4656 22.8099 18.6751 22.5915C18.8847 22.3716 19.1685 22.2467 19.4716 22.2393L23.8046 22.1398L26.4229 12.4172C26.5566 11.9209 27.0083 11.5747 27.521 11.5747H41.847L31.5657 1.96807C31.108 1.54012 31.0828 0.81795 31.5107 0.36028C31.9402 -0.0973909 32.6608 -0.122652 33.1185 0.3053L45.1784 11.5777H54.3898C60.2949 11.5777 65.9029 13.3534 70.6059 16.7116C72.395 17.9895 73.9359 19.4175 75.1841 20.9584L76.7993 20.9213C77.3239 20.9168 89.6854 20.8618 96.916 30.1534L124.837 29.5264C125.22 29.5234 125.571 29.6973 125.789 30.0049C126.008 30.3124 126.06 30.7077 125.929 31.0614C125.867 31.2278 124.369 35.1893 120.658 40.2846C117.241 44.9772 111.211 51.56 101.894 56.2674C100.812 56.8142 99.5877 57.1025 98.3529 57.1025V57.0995ZM23.3811 24.278L21.3008 32.002L16.8341 32.103C16.3913 32.1134 16.0064 32.4195 15.8979 32.8475L13.3213 42.9712L4.92571 42.9757C4.49182 42.9757 4.1129 43.2535 3.98363 43.6666L0.195956 55.6641C0.100856 55.9628 0.155836 56.2942 0.341578 56.5468C0.527321 56.7994 0.825996 56.951 1.13953 56.951H98.3544C99.5655 56.951 100.766 56.6671 101.829 56.1322C111.12 51.4381 117.132 44.8747 120.541 40.1955C124.24 35.1165 125.73 31.1743 125.792 31.0079C125.907 30.7003 125.862 30.357 125.672 30.0896C125.482 29.8221 125.173 29.669 124.843 29.6735L96.8462 30.3035L96.8239 30.2738C89.6423 21.0104 77.3209 21.0595 76.8038 21.0699L75.1172 21.1085L75.0949 21.0803C73.8497 19.5394 72.3118 18.1099 70.5227 16.832C65.8449 13.4916 60.2682 11.7263 54.3928 11.7263H45.1235L45.1027 11.7069L33.0175 0.413774C32.6192 0.0422878 31.9922 0.063091 31.6192 0.461324C31.2462 0.859557 31.2685 1.48662 31.6668 1.8596L42.2229 11.7263H27.521C27.0752 11.7263 26.6814 12.0279 26.5655 12.4588L23.9176 22.2883L19.4731 22.3909C19.2086 22.3968 18.9634 22.5053 18.7807 22.697C18.5979 22.8887 18.5013 23.1383 18.5072 23.4028C18.5191 23.9392 18.9619 24.3687 19.4984 24.3687C19.5058 24.3687 19.5117 24.3687 19.5192 24.3687L23.3811 24.2795V24.278ZM98.3529 54.9732H2.48877L2.51997 54.8766L5.65383 44.9534L14.0925 44.949C14.5442 44.949 14.9395 44.6414 15.0509 44.2045L17.632 34.063L21.8996 33.9664C21.968 33.9753 22.017 33.9798 22.0616 33.9798C22.1181 33.9798 22.1805 33.9738 22.2503 33.9589L123.338 31.6855L123.286 31.7939C122.351 33.7494 120.241 37.6723 116.611 41.9593C112.206 47.1616 106.934 51.3341 100.937 54.3639C100.151 54.7607 99.2579 54.9702 98.3559 54.9702L98.3529 54.9732ZM2.69086 54.8246H98.3529C99.2326 54.8246 100.102 54.6195 100.867 54.2332C114.475 47.3577 120.915 36.3662 123.095 31.84L22.2622 34.1075C22.1433 34.1328 22.0289 34.1373 21.8863 34.115L17.7449 34.2086L15.1921 44.2402C15.0643 44.7439 14.6111 45.0976 14.0895 45.0976L5.75933 45.102L2.68937 54.8246H2.69086ZM23.3633 31.9559L25.4436 24.2305H25.4986L76.832 23.0477C77.2748 23.0477 87.5843 23.1294 94.1953 30.2396L94.3082 30.3615L94.1432 30.3659L23.3633 31.9574V31.9559ZM25.558 24.3761L23.558 31.8014L93.9738 30.2188C87.403 23.275 77.2704 23.1963 76.8394 23.1963L25.558 24.3761ZM25.98 22.2393L28.2788 13.7041H54.3898C59.8492 13.7041 65.0292 15.3416 69.3696 18.4412C70.4989 19.2481 71.5257 20.1233 72.4217 21.0446L72.5406 21.1665L25.98 22.2378V22.2393ZM28.3932 13.8526L26.1762 22.0863L72.1973 21.0268C71.337 20.156 70.3577 19.3283 69.2849 18.5631C64.9697 15.4812 59.8194 13.8526 54.3913 13.8526H28.3947H28.3932Z" fill="white"/>
<path d="M98.7843 38.8003C98.8006 38.8003 98.817 38.8003 98.8333 38.8003L112.048 38.1985C112.635 38.1718 113.088 37.674 113.061 37.0885C113.034 36.5016 112.528 36.0439 111.95 36.0751L98.7352 36.6769C98.1483 36.7037 97.6951 37.2015 97.7218 37.7884C97.7471 38.359 98.2181 38.8033 98.7828 38.8033L98.7843 38.8003Z" fill="white"/>
<path d="M98.7849 38.8746C98.1756 38.8746 97.6764 38.3976 97.6496 37.7884C97.6214 37.1613 98.1073 36.6278 98.7343 36.5996L111.949 35.9978C112.248 35.98 112.536 36.0855 112.762 36.2905C112.99 36.4971 113.123 36.7779 113.136 37.0825C113.164 37.7096 112.678 38.2416 112.051 38.2713L98.8369 38.8731C98.819 38.8731 98.8027 38.8731 98.7849 38.8731V38.8746ZM112.008 36.1449C111.99 36.1449 111.974 36.1449 111.956 36.1449L98.7403 36.7467C98.1949 36.772 97.7729 37.2356 97.7967 37.7794C97.822 38.3233 98.2841 38.7453 98.8294 38.723L112.045 38.1212C112.591 38.0959 113.013 37.6323 112.989 37.0885C112.977 36.824 112.861 36.5788 112.662 36.399C112.479 36.2326 112.248 36.1434 112.008 36.1434V36.1449Z" fill="white"/>
<path d="M30.0909 46.2612C32.4624 46.2612 34.3927 44.3325 34.3927 41.9594C34.3927 39.5863 32.4639 37.6576 30.0909 37.6576C27.7178 37.6576 25.7891 39.5878 25.7891 41.9594C25.7891 44.331 27.7178 46.2612 30.0909 46.2612ZM30.0909 39.7855C31.29 39.7855 32.2648 40.7602 32.2648 41.9594C32.2648 43.1586 31.29 44.1333 30.0909 44.1333C28.8917 44.1333 27.9169 43.1586 27.9169 41.9594C27.9169 40.7602 28.8917 39.7855 30.0909 39.7855Z" fill="white"/>
<path d="M30.0909 46.3355C27.6778 46.3355 25.7148 44.3725 25.7148 41.9594C25.7148 39.5462 27.6778 37.5833 30.0909 37.5833C32.5041 37.5833 34.4671 39.5462 34.4671 41.9594C34.4671 44.3725 32.5041 46.3355 30.0909 46.3355ZM30.0909 37.7333C27.761 37.7333 25.8634 39.6294 25.8634 41.9608C25.8634 44.2923 27.7595 46.1884 30.0909 46.1884C32.4224 46.1884 34.3185 44.2923 34.3185 41.9608C34.3185 39.6294 32.4224 37.7333 30.0909 37.7333ZM30.0909 44.2076C28.8517 44.2076 27.8427 43.1986 27.8427 41.9594C27.8427 40.7201 28.8517 39.7111 30.0909 39.7111C31.3302 39.7111 32.3392 40.7201 32.3392 41.9594C32.3392 43.1986 31.3302 44.2076 30.0909 44.2076ZM30.0909 39.8597C28.9334 39.8597 27.9913 40.8018 27.9913 41.9594C27.9913 43.1169 28.9334 44.059 30.0909 44.059C31.2485 44.059 32.1906 43.1169 32.1906 41.9594C32.1906 40.8018 31.2485 39.8597 30.0909 39.8597Z" fill="white"/>
<path d="M50.7295 46.2611C53.1011 46.2611 55.0313 44.3323 55.0313 41.9593C55.0313 39.5862 53.1011 37.6575 50.7295 37.6575C48.358 37.6575 46.4277 39.5877 46.4277 41.9593C46.4277 44.3308 48.3565 46.2611 50.7295 46.2611ZM50.7295 39.7853C51.9287 39.7853 52.9035 40.7601 52.9035 41.9593C52.9035 43.1584 51.9287 44.1332 50.7295 44.1332C49.5304 44.1332 48.5556 43.1584 48.5556 41.9593C48.5556 40.7601 49.5304 39.7853 50.7295 39.7853Z" fill="white"/>
<path d="M50.7296 46.3353C48.3164 46.3353 46.3535 44.3724 46.3535 41.9592C46.3535 39.5461 48.3164 37.5831 50.7296 37.5831C53.1428 37.5831 55.1057 39.5461 55.1057 41.9592C55.1057 44.3724 53.1428 46.3353 50.7296 46.3353ZM50.7296 37.7332C48.3997 37.7332 46.5021 39.6293 46.5021 41.9607C46.5021 44.2922 48.3982 46.1882 50.7296 46.1882C53.0611 46.1882 54.9571 44.2922 54.9571 41.9607C54.9571 39.6293 53.0611 37.7332 50.7296 37.7332ZM50.7296 44.2075C49.4903 44.2075 48.4814 43.1985 48.4814 41.9592C48.4814 40.72 49.4903 39.711 50.7296 39.711C51.9689 39.711 52.9779 40.72 52.9779 41.9592C52.9779 43.1985 51.9689 44.2075 50.7296 44.2075ZM50.7296 39.8596C49.5721 39.8596 48.63 40.8017 48.63 41.9592C48.63 43.1168 49.5721 44.0589 50.7296 44.0589C51.8872 44.0589 52.8293 43.1168 52.8293 41.9592C52.8293 40.8017 51.8872 39.8596 50.7296 39.8596Z" fill="white"/>
<path d="M71.3702 46.2612C73.7417 46.2612 75.672 44.3325 75.672 41.9594C75.672 39.5863 73.7432 37.6576 71.3702 37.6576C68.9971 37.6576 67.0684 39.5878 67.0684 41.9594C67.0684 44.331 68.9986 46.2612 71.3702 46.2612ZM71.3702 39.7855C72.5693 39.7855 73.5441 40.7602 73.5441 41.9594C73.5441 43.1586 72.5693 44.1333 71.3702 44.1333C70.171 44.1333 69.1962 43.1586 69.1962 41.9594C69.1962 40.7602 70.171 39.7855 71.3702 39.7855Z" fill="white"/>
<path d="M71.3683 46.3355C68.9551 46.3355 66.9922 44.3725 66.9922 41.9594C66.9922 39.5462 68.9551 37.5833 71.3683 37.5833C73.7815 37.5833 75.7444 39.5462 75.7444 41.9594C75.7444 44.3725 73.7815 46.3355 71.3683 46.3355ZM71.3683 37.7333C69.0368 37.7333 67.1408 39.6294 67.1408 41.9608C67.1408 44.2923 69.0368 46.1884 71.3683 46.1884C73.6997 46.1884 75.5958 44.2923 75.5958 41.9608C75.5958 39.6294 73.6997 37.7333 71.3683 37.7333ZM71.3683 44.2076C70.129 44.2076 69.1201 43.1986 69.1201 41.9594C69.1201 40.7201 70.129 39.7111 71.3683 39.7111C72.6076 39.7111 73.6165 40.7201 73.6165 41.9594C73.6165 43.1986 72.6076 44.2076 71.3683 44.2076ZM71.3683 39.8597C70.2107 39.8597 69.2687 40.8018 69.2687 41.9594C69.2687 43.1169 70.2107 44.059 71.3683 44.059C72.5258 44.059 73.4679 43.1169 73.4679 41.9594C73.4679 40.8018 72.5258 39.8597 71.3683 39.8597Z" fill="white"/>
<path d="M111.101 24.6154C105.243 24.6154 100.477 19.8485 100.477 13.991C100.477 8.13336 105.243 3.36646 111.101 3.36646C116.959 3.36646 121.726 8.13336 121.726 13.991C121.726 19.8485 116.959 24.6154 111.101 24.6154ZM111.101 5.59537C106.472 5.59537 102.705 9.36224 102.705 13.991C102.705 18.6197 106.472 22.3865 111.101 22.3865C115.73 22.3865 119.497 18.6197 119.497 13.991C119.497 9.36224 115.73 5.59537 111.101 5.59537Z" fill="white"/>
<path d="M110.421 18.5023C110.127 18.5023 109.843 18.3864 109.634 18.1754L106.237 14.7785C105.801 14.3431 105.801 13.6373 106.237 13.2019C106.672 12.7666 107.378 12.7666 107.813 13.2019L110.271 15.6597L114.264 9.95515C114.617 9.45142 115.311 9.32808 115.817 9.68174C116.32 10.0354 116.444 10.7293 116.09 11.2345L111.335 18.0268C111.146 18.2972 110.848 18.4696 110.519 18.4978C110.486 18.5008 110.454 18.5023 110.421 18.5023Z" fill="white"/>
</svg>
