<svg width="80" height="80" viewBox="0 0 80 80" fill="none" xmlns="http://www.w3.org/2000/svg">
<g clip-path="url(#clip0_411_108)">
<path d="M39.9995 80.0002C39.6254 80.0002 39.2494 79.8597 38.9625 79.5767L33.7223 74.4513C33.4354 74.1702 33.0099 74.0891 32.6398 74.2415L25.7769 77.0852C25.4128 77.2356 25.0051 77.2356 24.641 77.0852C24.2769 76.9348 23.988 76.6459 23.8376 76.2818L21.0018 69.4367C20.8454 69.0607 20.4833 68.8192 20.0776 68.8192H12.6685C11.8493 68.8192 11.1843 68.1543 11.1843 67.335V59.9259C11.1843 59.5203 10.9409 59.1561 10.5669 59.0018L3.72181 56.166C3.35769 56.0156 3.06877 55.7267 2.91837 55.3626C2.76797 54.9984 2.76797 54.5908 2.91837 54.2266L5.76208 47.3637C5.91644 46.9937 5.83332 46.5682 5.55232 46.2813L0.426901 41.0411C-0.137092 40.4632 -0.137092 39.543 0.426901 38.9652L5.55232 33.725C5.83332 33.438 5.91446 33.0126 5.76208 32.6425L2.91837 25.7796C2.76797 25.4155 2.76797 25.0078 2.91837 24.6437C3.06877 24.2796 3.35769 23.9907 3.72181 23.8403L10.5669 21.0045C10.9429 20.8481 11.1843 20.486 11.1843 20.0803V12.6712C11.1843 11.8519 11.8493 11.187 12.6685 11.187H20.0776C20.4833 11.187 20.8474 10.9456 21.0018 10.5696L23.8376 3.7245C24.1522 2.96657 25.021 2.6064 25.7769 2.92105L32.6398 5.76477C33.0099 5.91912 33.4354 5.83601 33.7223 5.555L38.9625 0.429587C39.5384 -0.134407 40.4605 -0.134407 41.0384 0.429587L46.2786 5.555C46.5655 5.83601 46.991 5.91714 47.361 5.76477L54.2259 2.92105C54.9839 2.60838 55.8506 2.96657 56.1653 3.7245L59.0011 10.5696C59.1574 10.9456 59.5196 11.187 59.9252 11.187H67.3343C68.1536 11.187 68.8185 11.8519 68.8185 12.6712V20.0803C68.8185 20.486 69.06 20.8501 69.436 21.0045L76.2811 23.8403C77.039 24.1529 77.3972 25.0217 77.0845 25.7796L74.2408 32.6425C74.0864 33.0126 74.1695 33.438 74.4506 33.725L79.576 38.9652C80.14 39.543 80.14 40.4632 79.576 41.0411L74.4506 46.2813C74.1695 46.5682 74.0884 46.9937 74.2408 47.3637L77.0845 54.2266C77.2349 54.5908 77.2349 54.9984 77.0845 55.3626C76.9341 55.7267 76.6452 56.0156 76.2811 56.166L69.436 59.0018C69.06 59.1581 68.8185 59.5203 68.8185 59.9259V67.335C68.8185 68.1543 68.1536 68.8192 67.3343 68.8192H59.9252C59.5196 68.8192 59.1554 69.0607 59.0011 69.4367L56.1653 76.2818C56.0149 76.6459 55.726 76.9348 55.3618 77.0852C54.9977 77.2356 54.5901 77.2356 54.2259 77.0852L47.363 74.2415C46.993 74.0891 46.5675 74.1702 46.2806 74.4513L41.0404 79.5767C40.7514 79.8597 40.3774 80.0002 40.0034 80.0002H39.9995ZM33.0218 71.1959C34.0389 71.1959 35.0383 71.5877 35.7962 72.3279L39.9995 76.4401L44.2027 72.3298C45.3406 71.2177 47.0266 70.8912 48.497 71.5007L53.9904 73.7764L56.2583 68.3027C56.8737 66.8146 58.3144 65.8528 59.9252 65.8528H65.8501V59.9279C65.8501 58.3171 66.8119 56.8784 68.3001 56.261L73.7738 53.9931L71.498 48.5016C70.8885 47.0313 71.215 45.3452 72.3272 44.2074L76.4374 40.0041L72.3272 35.8009C71.213 34.663 70.8885 32.977 71.498 31.5066L73.7738 26.0151L68.3001 23.7473C66.8119 23.1318 65.8501 21.6912 65.8501 20.0803V14.1554H59.9252C58.3144 14.1554 56.8737 13.1936 56.2583 11.7055L53.9904 6.23179L48.497 8.50756C47.0266 9.11707 45.3406 8.79054 44.2027 7.67839L39.9995 3.56618L35.7962 7.67641C34.6583 8.78856 32.9723 9.11509 31.502 8.50558L26.0104 6.22981L23.7426 11.7035C23.1271 13.1917 21.6865 14.1534 20.0756 14.1534H14.1507V20.0783C14.1507 21.6892 13.189 23.1298 11.7008 23.7453L6.22713 26.0131L8.50289 31.5046C9.1124 32.975 8.78588 34.661 7.67372 35.7989L3.5635 40.0021L7.67372 44.2054C8.78588 45.3433 9.1124 47.0293 8.50289 48.4996L6.22713 53.9912L11.7008 56.259C13.189 56.8764 14.1507 58.3151 14.1507 59.9259V65.8509H20.0756C21.6865 65.8509 23.1271 66.8126 23.7426 68.3008L26.0104 73.7745L31.502 71.4987C31.9947 71.2949 32.5112 71.1959 33.0218 71.1959Z" fill="white"/>
<path d="M38.7566 48.9389C38.4222 48.9389 38.0838 48.8261 37.8067 48.5945L30.3521 42.3827C29.7228 41.8583 29.6377 40.9222 30.1621 40.2929C30.6866 39.6636 31.6226 39.5786 32.2519 40.103L38.5825 45.3788L52.5398 29.0962C53.0722 28.4748 54.0102 28.4016 54.6335 28.9359C55.2569 29.4702 55.3281 30.4062 54.7938 31.0296L39.8846 48.4243C39.5917 48.7667 39.1761 48.9428 38.7566 48.9428V48.9389Z" fill="white"/>
<path d="M39.999 65.0908C26.1643 65.0908 14.9082 53.8347 14.9082 40.0001C14.9082 35.8522 15.9412 31.742 17.8964 28.1146C18.2842 27.3923 19.1847 27.1232 19.907 27.513C20.6293 27.9009 20.8984 28.8013 20.5086 29.5236C18.7849 32.7216 17.8746 36.343 17.8746 40.002C17.8746 52.2001 27.7989 62.1244 39.997 62.1244C52.1951 62.1244 62.1194 52.2001 62.1194 40.002C62.1194 27.8039 52.1951 17.8796 39.997 17.8796C36.52 17.8796 33.1935 18.6633 30.1083 20.2069C29.3741 20.573 28.4836 20.2761 28.1175 19.5439C27.7514 18.8117 28.0483 17.9192 28.7805 17.5531C32.2812 15.7998 36.055 14.9113 39.997 14.9113C53.8317 14.9113 65.0878 26.1674 65.0878 40.002C65.0878 53.8367 53.8317 65.0928 39.997 65.0928L39.999 65.0908Z" fill="white"/>
</g>
<defs>
<clipPath id="clip0_411_108">
<rect width="80" height="80" fill="white"/>
</clipPath>
</defs>
</svg>
