<svg width="73" height="86" viewBox="0 0 73 86" fill="none" xmlns="http://www.w3.org/2000/svg">
<g clip-path="url(#clip0_411_115)">
<path d="M1.57961 72.4154C1.17509 72.4154 0.770578 72.263 0.462979 71.9561C-0.154326 71.3445 -0.154326 70.353 0.462979 69.7414L16.0136 54.3345C17.4336 52.9276 19.452 52.3494 21.4113 52.7898L44.022 57.8663C46.6892 58.4654 48.5517 60.7761 48.5517 63.4856C48.5517 65.097 47.8648 66.6458 46.666 67.7334C45.4672 68.823 43.8513 69.3636 42.229 69.2258L28.3534 68.0214C27.4832 67.9463 26.8407 67.1865 26.9165 66.3244C26.9923 65.4623 27.7613 64.8257 28.6294 64.9008L42.505 66.1052C43.2572 66.1699 43.9756 65.9278 44.5297 65.4247C45.0859 64.9196 45.3914 64.2308 45.3914 63.4856C45.3914 62.2477 44.5402 61.1936 43.3225 60.9202L20.7118 55.8437C19.8164 55.6433 18.8957 55.9063 18.2468 56.5492L2.69623 71.9582C2.38863 72.263 1.98412 72.4174 1.57961 72.4174V72.4154Z" fill="white"/>
<path d="M15.2919 86C14.9 86 14.5081 85.856 14.2026 85.5679C13.5706 84.971 13.5474 83.9794 14.15 83.3553L21.1342 76.0996C21.4333 75.7907 21.8463 75.6153 22.2782 75.6153H22.2845L45.5967 75.6926C46.7028 75.6988 47.792 75.392 48.7338 74.8096L68.6688 62.5316C69.8338 61.8157 70.1962 60.2898 69.4778 59.1334C68.7931 58.0312 67.3962 57.6388 66.229 58.2191L45.9949 68.297C45.2154 68.6852 44.2652 68.3742 43.8733 67.6019C43.4814 66.8295 43.7954 65.8881 44.5749 65.4999L64.809 55.422C67.4531 54.1049 70.6155 54.9962 72.1682 57.4927C73.7947 60.1124 72.9751 63.567 70.3374 65.191L50.4024 77.4689C48.9634 78.354 47.3096 78.8236 45.6157 78.8236H45.5862L22.9524 78.7485L16.438 85.5178C16.1283 85.8393 15.7111 86.0021 15.294 86.0021L15.2919 86Z" fill="white"/>
<path d="M43.3591 51.9215C28.9103 51.9215 17.1562 40.276 17.1562 25.9607C17.1562 11.6455 28.9103 0 43.3591 0C57.8078 0 69.5619 11.6455 69.5619 25.9607C69.5619 40.276 57.8078 51.9215 43.3591 51.9215ZM43.3591 3.13107C30.6527 3.13107 20.3165 13.3717 20.3165 25.9607C20.3165 38.5497 30.6527 48.7904 43.3591 48.7904C56.0654 48.7904 66.4016 38.5497 66.4016 25.9607C66.4016 13.3717 56.0633 3.13107 43.3591 3.13107Z" fill="white"/>
<path d="M44.5176 36.9278H42.1958C38.709 36.9278 35.8711 34.1161 35.8711 30.6615C35.8711 29.7973 36.579 29.096 37.4512 29.096C38.3235 29.096 39.0314 29.7973 39.0314 30.6615C39.0314 32.3899 40.4514 33.7968 42.1958 33.7968H44.5176C46.262 33.7968 47.6821 32.3899 47.6821 30.6615C47.6821 28.9332 46.262 27.5263 44.5176 27.5263H42.1958C38.709 27.5263 35.8711 24.7146 35.8711 21.26C35.8711 17.8054 38.709 14.9937 42.1958 14.9937H44.5176C48.0044 14.9937 50.8423 17.8054 50.8423 21.26C50.8423 22.1241 50.1344 22.8255 49.2622 22.8255C48.39 22.8255 47.6821 22.1241 47.6821 21.26C47.6821 19.5316 46.262 18.1247 44.5176 18.1247H42.1958C40.4514 18.1247 39.0314 19.5316 39.0314 21.26C39.0314 22.9883 40.4514 24.3952 42.1958 24.3952H44.5176C48.0044 24.3952 50.8423 27.2069 50.8423 30.6615C50.8423 34.1161 48.0044 36.9278 44.5176 36.9278Z" fill="white"/>
<path d="M43.3594 18.1247C42.4872 18.1247 41.7793 17.4233 41.7793 16.5591V12.3426C41.7793 11.4785 42.4872 10.7771 43.3594 10.7771C44.2317 10.7771 44.9396 11.4785 44.9396 12.3426V16.5591C44.9396 17.4233 44.2317 18.1247 43.3594 18.1247Z" fill="white"/>
<path d="M43.3594 41.1443C42.4872 41.1443 41.7793 40.443 41.7793 39.5788V35.3623C41.7793 34.4981 42.4872 33.7968 43.3594 33.7968C44.2317 33.7968 44.9396 34.4981 44.9396 35.3623V39.5788C44.9396 40.443 44.2317 41.1443 43.3594 41.1443Z" fill="white"/>
</g>
<defs>
<clipPath id="clip0_411_115">
<rect width="73" height="86" fill="white"/>
</clipPath>
</defs>
</svg>
