<svg width="86" height="76" viewBox="0 0 86 76" fill="none" xmlns="http://www.w3.org/2000/svg">
<g clip-path="url(#clip0_411_95)">
<path d="M69.8052 76H7.97976C7.19097 76 6.55078 75.3602 6.55078 74.572V37.5078C6.55078 36.7196 7.19097 36.0798 7.97976 36.0798C8.76856 36.0798 9.40875 36.7196 9.40875 37.5078V73.144H68.3629L68.2238 59.8468C68.2162 59.0586 68.8487 58.4132 69.6375 58.4037H69.6528C70.4358 58.4037 71.0741 59.0339 71.0817 59.8164L71.2361 74.5568C71.2399 74.9376 71.0913 75.305 70.8226 75.5754C70.554 75.8457 70.1882 75.9981 69.8071 75.9981L69.8052 76Z" fill="white"/>
<path d="M1.42898 44.2649C1.22321 44.2649 1.01744 44.2211 0.823094 44.1298C0.320092 43.8956 0 43.391 0 42.837V32.5233C0 32.1006 0.188626 31.6989 0.512529 31.4266L37.7633 0.331272C38.2948 -0.112348 39.0703 -0.112348 39.6019 0.336984L54.7796 13.1411C55.3836 13.6494 55.4598 14.55 54.9492 15.1535C54.4404 15.7571 53.5392 15.8332 52.9352 15.323L38.6759 3.29382L2.85797 33.1916V39.783L37.7633 10.645C38.2891 10.2052 39.0532 10.2014 39.5847 10.6355L49.4962 18.7368C50.1078 19.2356 50.1973 20.1362 49.6981 20.7454C49.1989 21.3566 48.2977 21.4461 47.688 20.9472L38.6911 13.5923L2.34544 43.9336C2.0825 44.1526 1.7586 44.2649 1.42898 44.2649Z" fill="white"/>
<path d="M47.6644 75.2269C46.8756 75.2269 46.2355 74.5872 46.2355 73.7989V46.4392H31.5474V73.7418C31.5474 74.5301 30.9072 75.1698 30.1184 75.1698C29.3296 75.1698 28.6895 74.5301 28.6895 73.7418V45.0112C28.6895 44.223 29.3296 43.5833 30.1184 43.5833H47.6644C48.4532 43.5833 49.0934 44.223 49.0934 45.0112V73.7989C49.0934 74.5872 48.4532 75.2269 47.6644 75.2269Z" fill="white"/>
<path d="M24.2028 64.4125H13.9446C13.1558 64.4125 12.5156 63.7728 12.5156 62.9846V49.0019C12.5156 48.2137 13.1558 47.574 13.9446 47.574H24.2028C24.9916 47.574 25.6318 48.2137 25.6318 49.0019V62.9846C25.6318 63.7728 24.9916 64.4125 24.2028 64.4125ZM15.3717 61.5566H22.7719V50.4299H15.3717V61.5566Z" fill="white"/>
<path d="M63.8397 64.4125H53.5815C52.7966 64.4125 52.1583 63.7804 52.1526 62.996L52.0821 53.777C52.0764 52.9888 52.7108 52.3434 53.4996 52.3376H53.5111C54.296 52.3376 54.9343 52.9698 54.94 53.7542L54.9991 61.5547H62.365L62.2564 58.1199C62.2317 57.3317 62.8509 56.6729 63.6397 56.6482C64.4266 56.6139 65.0877 57.2422 65.1125 58.0305L65.2668 62.9369C65.2782 63.3234 65.1334 63.6985 64.8648 63.9765C64.5961 64.2545 64.2246 64.4106 63.8378 64.4106L63.8397 64.4125Z" fill="white"/>
<path d="M66.9197 53.4363C56.4005 53.4363 47.8418 44.8837 47.8418 34.372C47.8418 23.8603 56.4005 15.3077 66.9197 15.3077C77.4389 15.3077 85.9975 23.8603 85.9975 34.372C85.9975 44.8837 77.4389 53.4363 66.9197 53.4363ZM66.9197 18.1637C57.9761 18.1637 50.6998 25.4349 50.6998 34.372C50.6998 43.3091 57.9761 50.5803 66.9197 50.5803C75.8632 50.5803 83.1396 43.3091 83.1396 34.372C83.1396 25.4349 75.8632 18.1637 66.9197 18.1637Z" fill="white"/>
<path d="M71.2866 52.8899C70.4978 52.8899 69.8576 52.2502 69.8576 51.4619V43.9661C69.8576 42.917 70.4406 41.9536 71.38 41.4528C74.4589 39.804 76.3719 36.613 76.3719 33.125C76.3719 30.1662 74.9886 27.4283 72.7175 25.6615V31.8741C72.7175 34.1702 70.8465 36.0399 68.5487 36.0399H65.2944C62.9966 36.0399 61.1256 34.1702 61.1256 31.8741V25.6596C58.8525 27.4245 57.4693 30.1643 57.4693 33.1231C57.4693 36.6111 59.3822 39.8021 62.4631 41.4509C63.4005 41.9498 63.9836 42.9132 63.9836 43.9623V51.4581C63.9836 52.2463 63.3434 52.8861 62.5546 52.8861C61.7658 52.8861 61.1256 52.2463 61.1256 51.4581V43.9623C57.1016 41.8203 54.6113 37.664 54.6113 33.1231C54.6113 28.2394 57.5036 23.8146 61.9811 21.8536C62.4231 21.6594 62.9337 21.7032 63.3376 21.9659C63.7416 22.2287 63.9855 22.6799 63.9855 23.1616V31.8741C63.9855 32.5957 64.5742 33.184 65.2963 33.184H68.5506C69.2727 33.184 69.8614 32.5957 69.8614 31.8741V23.1616C69.8614 22.6799 70.1053 22.2306 70.5092 21.9659C70.9132 21.7032 71.4238 21.6594 71.8658 21.8536C76.3414 23.8185 79.2337 28.2413 79.2337 33.1231C79.2337 37.6659 76.7415 41.8203 72.7308 43.968L72.7137 43.9813L72.7175 51.46C72.7175 52.2482 72.0773 52.888 71.2885 52.888L71.2866 52.8899Z" fill="white"/>
</g>
<defs>
<clipPath id="clip0_411_95">
<rect width="86" height="76" fill="white"/>
</clipPath>
</defs>
</svg>
