<svg width="86" height="88" viewBox="0 0 86 88" fill="none" xmlns="http://www.w3.org/2000/svg">
<g clip-path="url(#clip0_411_422)">
<path d="M42.9989 76.6384C37.6719 76.6384 33.3398 72.3458 33.3398 67.0673C33.3398 61.7887 37.6739 57.4961 42.9989 57.4961C48.3239 57.4961 52.6579 61.7887 52.6579 67.0673C52.6579 72.3458 48.3259 76.6384 42.9989 76.6384ZM42.9989 60.4558C39.3195 60.4558 36.3247 63.4214 36.3247 67.0692C36.3247 70.7171 39.3195 73.6827 42.9989 73.6827C46.6782 73.6827 49.673 70.7171 49.673 67.0692C49.673 63.4214 46.6802 60.4558 42.9989 60.4558Z" fill="white"/>
<path d="M55.6911 88C55.0922 88 54.527 87.6411 54.2982 87.0535C53.0903 83.9558 50.0258 81.8756 46.6728 81.8756H39.3261C35.9751 81.8756 32.9106 83.9558 31.7007 87.0535C31.4023 87.8146 30.5386 88.1932 29.7705 87.8994C29.0024 87.6037 28.6204 86.7479 28.9169 85.9868C30.5665 81.7592 34.7493 78.9198 39.3261 78.9198H46.6728C51.2496 78.9198 55.4324 81.7612 57.0821 85.9887C57.3786 86.7499 56.9965 87.6076 56.2284 87.9014C56.0513 87.9684 55.8702 88.002 55.6911 88.002V88Z" fill="white"/>
<path d="M14.1825 68.4456C8.85547 68.4456 4.52344 64.1529 4.52344 58.8744C4.52344 53.5959 8.85746 49.3032 14.1825 49.3032C19.5075 49.3032 23.8415 53.5959 23.8415 58.8744C23.8415 64.1529 19.5095 68.4456 14.1825 68.4456ZM14.1825 52.2629C10.5031 52.2629 7.50831 55.2285 7.50831 58.8764C7.50831 62.5242 10.5031 65.4898 14.1825 65.4898C17.8618 65.4898 20.8566 62.5242 20.8566 58.8764C20.8566 55.2285 17.8638 52.2629 14.1825 52.2629Z" fill="white"/>
<path d="M26.8747 79.8071C26.2758 79.8071 25.7106 79.4483 25.4818 78.8607C24.2739 75.7629 21.2094 73.6827 17.8564 73.6827H10.5097C7.15867 73.6827 4.09421 75.7629 2.88434 78.8607C2.58784 79.6218 1.72422 80.0004 0.954126 79.7066C0.186021 79.4108 -0.196042 78.555 0.100454 77.7939C1.75009 73.5663 5.93488 70.7269 10.5097 70.7269H17.8564C22.4312 70.7269 26.616 73.5683 28.2657 77.7959C28.5622 78.557 28.1801 79.4147 27.412 79.7085C27.2349 79.7756 27.0538 79.8091 26.8747 79.8091V79.8071Z" fill="white"/>
<path d="M71.8192 69.1948C66.4922 69.1948 62.1602 64.9022 62.1602 59.6237C62.1602 54.3451 66.4942 50.0525 71.8192 50.0525C77.1442 50.0525 81.4782 54.3451 81.4782 59.6237C81.4782 64.9022 77.1462 69.1948 71.8192 69.1948ZM71.8192 53.0122C68.1398 53.0122 65.145 55.9778 65.145 59.6256C65.145 63.2735 68.1398 66.2391 71.8192 66.2391C75.4985 66.2391 78.4934 63.2735 78.4934 59.6256C78.4934 55.9778 75.5005 53.0122 71.8192 53.0122Z" fill="white"/>
<path d="M84.5075 80.5564C83.9086 80.5564 83.3434 80.1975 83.1146 79.6099C81.9047 76.5122 78.8422 74.4319 75.4892 74.4319H68.1425C64.7915 74.4319 61.727 76.5122 60.5172 79.6099C60.2187 80.371 59.355 80.7496 58.5869 80.4558C57.8188 80.1601 57.4368 79.3043 57.7333 78.5432C59.3829 74.3156 63.5677 71.4762 68.1425 71.4762H75.4892C80.066 71.4762 84.2488 74.3176 85.8985 78.5451C86.195 79.3063 85.8129 80.164 85.0448 80.4578C84.8677 80.5248 84.6866 80.5584 84.5075 80.5584V80.5564Z" fill="white"/>
<path d="M41.4083 33.2151C41.0262 33.2151 40.6442 33.0712 40.3536 32.7813L33.4685 25.9589C32.8855 25.3811 32.8855 24.4445 33.4685 23.8668C34.0516 23.289 34.9968 23.289 35.5798 23.8668L41.4083 29.6442L51.6066 19.5387C52.1896 18.9609 53.1348 18.9609 53.7179 19.5387C54.3009 20.1164 54.3009 21.053 53.7179 21.6307L42.4649 32.7813C42.1744 33.0692 41.7923 33.2151 41.4103 33.2151H41.4083Z" fill="white"/>
<path d="M43.0015 52.0992C42.715 52.0992 42.4284 52.0184 42.1797 51.8547L40.2296 50.5809C39.2326 49.9282 30.4153 44.1607 27.3648 41.9266C24.0058 39.4678 22 35.1475 22 30.3718V9.65202C22 8.83569 22.6686 8.17316 23.4924 8.17316C31.7406 8.17316 41.9827 0.388442 42.0862 0.30957C42.6234 -0.102539 43.3756 -0.102539 43.9149 0.30957C44.0184 0.388442 54.2604 8.17316 62.5086 8.17316C63.3325 8.17316 64.0011 8.83569 64.0011 9.65202V30.3738C64.0011 35.1495 61.9952 39.4678 58.6383 41.9286C55.5877 44.1627 46.7704 49.9302 45.7755 50.5809L43.8234 51.8547C43.5746 52.0184 43.2881 52.0992 43.0015 52.0992ZM24.9869 11.0658V30.3758C24.9869 34.2169 26.539 37.6478 29.1398 39.5506C32.1286 41.7393 40.8823 47.4674 41.8713 48.1122L43.0015 48.8497L44.1298 48.1122C45.1208 47.4655 53.8744 41.7373 56.8632 39.5486C59.4641 37.6439 61.0162 34.2149 61.0162 30.3738V11.0658C53.5898 10.4151 45.662 5.20755 43.0015 3.31855C40.341 5.20755 32.4132 10.4151 24.9869 11.0658Z" fill="white"/>
</g>
<defs>
<clipPath id="clip0_411_422">
<rect width="86" height="88" fill="white"/>
</clipPath>
</defs>
</svg>
