<svg width="95" height="81" viewBox="0 0 95 81" fill="none" xmlns="http://www.w3.org/2000/svg">
<g clip-path="url(#clip0_420_498)">
<path d="M93.699 25.318H36.8816C36.1643 25.318 35.582 24.7218 35.582 23.9872C35.582 23.2527 36.1643 22.6565 36.8816 22.6565H93.699C94.4164 22.6565 94.9986 23.2527 94.9986 23.9872C94.9986 24.7218 94.4164 25.318 93.699 25.318Z" fill="white"/>
<path d="M91.2874 20.8928C87.2378 20.8928 82.2837 20.8892 77.2533 20.8857C71.5835 20.8821 65.815 20.8786 61.1347 20.8786C60.8955 20.8786 60.6529 20.8821 60.4103 20.8857C57.6777 20.9211 54.2779 20.9673 51.0791 16.5598C49.7206 14.6879 43.505 14.6826 41.1414 14.6826H41.0981C40.346 14.6826 38.3602 14.6755 36.3762 14.6702C34.3955 14.6631 32.4149 14.6578 31.6629 14.6578C30.9109 14.6578 30.3633 14.0616 30.3633 13.327V7.56575C30.3633 6.83118 30.9455 6.235 31.6629 6.235C32.3803 6.235 34.3955 6.2279 36.3762 6.22258C38.3602 6.21548 40.346 6.21016 41.0981 6.21016H41.1414C43.505 6.21016 49.7206 6.20484 51.0809 4.33292C54.2796 -0.0745219 57.6794 -0.026615 60.4121 0.00709733C60.6547 0.010646 60.8973 0.0141947 61.1364 0.0141947C65.8618 0.0141947 71.6979 0.010646 77.4231 0.00709733C82.3963 0.00354866 87.2846 0 91.2874 0C92.613 0 93.6926 1.09831 93.6926 2.44858V18.4424C93.6926 19.7927 92.6148 20.891 91.2892 20.891L91.2874 20.8928ZM61.1364 18.2171C65.8167 18.2171 71.5853 18.2206 77.2568 18.2242C82.2057 18.2277 87.0819 18.2313 91.0933 18.2313V2.6615C87.1269 2.6615 82.3166 2.66505 77.4249 2.66859C71.6997 2.67214 65.8618 2.67569 61.1364 2.67569C60.8851 2.67569 60.6321 2.67214 60.3774 2.66859C57.799 2.63488 55.5723 2.60472 53.1654 5.91917C51.1883 8.64277 45.9136 8.86988 41.1241 8.86988H41.0981C40.346 8.86988 38.3654 8.87698 36.3848 8.8823C35.1441 8.88585 33.9034 8.8894 32.9642 8.89295V11.998C33.9034 11.9998 35.1441 12.0051 36.3848 12.0087C38.3654 12.0158 40.3478 12.0211 41.0981 12.0211H41.1241C45.9136 12.0211 51.1883 12.25 53.1654 14.9718C55.5723 18.288 57.799 18.2579 60.3774 18.2224C60.6321 18.2188 60.8851 18.2153 61.1364 18.2153V18.2171Z" fill="white"/>
<path d="M39.3582 11.6431C38.6408 11.6431 38.0586 11.047 38.0586 10.3124V7.54266C38.0586 6.80809 38.6408 6.21191 39.3582 6.21191C40.0756 6.21191 40.6578 6.80809 40.6578 7.54266V10.3124C40.6578 11.047 40.0756 11.6431 39.3582 11.6431Z" fill="white"/>
<path d="M83.4567 15.6851H68.3777C67.6604 15.6851 67.0781 15.0889 67.0781 14.3543V4.44293C67.0781 3.70836 67.6604 3.11218 68.3777 3.11218C69.0951 3.11218 69.6774 3.70836 69.6774 4.44293V13.0236H82.1571V4.44293C82.1571 3.70836 82.7393 3.11218 83.4567 3.11218C84.1741 3.11218 84.7563 3.70836 84.7563 4.44293V14.3543C84.7563 15.0889 84.1741 15.6851 83.4567 15.6851Z" fill="white"/>
<path d="M63.3357 81H6.51836C5.80098 81 5.21875 80.4038 5.21875 79.6692C5.21875 78.9347 5.80098 78.3385 6.51836 78.3385H63.3357C64.0531 78.3385 64.6353 78.9347 64.6353 79.6692C64.6353 80.4038 64.0531 81 63.3357 81Z" fill="white"/>
<path d="M60.9241 76.5748C56.9196 76.5748 52.0313 76.5712 47.0599 76.5677C41.3346 76.5641 35.4985 76.5606 30.7731 76.5606C30.534 76.5606 30.2914 76.5641 30.0488 76.5677C27.3161 76.6031 23.9163 76.6493 20.7176 72.2418C19.359 70.3699 13.1434 70.3646 10.7781 70.3646H10.7348C9.98276 70.3646 7.99695 70.3575 6.01288 70.3522C4.03227 70.3451 2.05166 70.3398 1.29961 70.3398C0.54757 70.3398 0 69.7436 0 69.009V63.2478C0 62.5132 0.582227 61.917 1.29961 61.917C2.017 61.917 4.03227 61.9099 6.01288 61.9046C7.99695 61.8975 9.98276 61.8922 10.7348 61.8922H10.7781C13.1417 61.8922 19.3573 61.8868 20.7158 60.0149C23.9146 55.6075 27.3161 55.6536 30.0471 55.6891C30.2897 55.6926 30.5322 55.6962 30.7714 55.6962C35.45 55.6962 41.2185 55.6926 46.89 55.6891C51.9204 55.6856 56.8745 55.682 60.9241 55.682C62.2497 55.682 63.3293 56.7803 63.3293 58.1306V74.1244C63.3293 75.4747 62.2515 76.573 60.9259 76.573L60.9241 76.5748ZM30.7714 73.9008C35.4985 73.9008 41.3346 73.9044 47.0599 73.9079C51.9516 73.9115 56.7602 73.9133 60.7283 73.915V58.3453C56.7169 58.3453 51.8407 58.3488 46.8918 58.3524C41.2203 58.3559 35.4517 58.3595 30.7714 58.3595C30.5201 58.3595 30.2671 58.3559 30.0124 58.3524C27.434 58.3187 25.2073 58.2885 22.8004 61.6029C20.8233 64.3248 15.5486 64.5537 10.7591 64.5537H10.7313C9.9793 64.5537 7.99869 64.5608 6.01808 64.5661C4.77738 64.5696 3.53668 64.5732 2.59749 64.5767V67.6818C3.53668 67.6836 4.77738 67.6889 6.01808 67.6925C7.99869 67.6996 9.98103 67.7049 10.7313 67.7049H10.7573C15.5468 67.7049 20.8233 67.9338 22.8004 70.6556C25.2073 73.97 27.4322 73.9416 30.0124 73.9062C30.2671 73.9026 30.5201 73.8991 30.7714 73.8991V73.9008Z" fill="white"/>
<path d="M8.99493 67.327C8.27754 67.327 7.69531 66.7308 7.69531 65.9962V63.2265C7.69531 62.4919 8.27754 61.8958 8.99493 61.8958C9.71231 61.8958 10.2945 62.4919 10.2945 63.2265V65.9962C10.2945 66.7308 9.71231 67.327 8.99493 67.327Z" fill="white"/>
<path d="M53.0934 71.3688H38.0145C37.2971 71.3688 36.7148 70.7726 36.7148 70.0381V60.1266C36.7148 59.3921 37.2971 58.7959 38.0145 58.7959C38.7318 58.7959 39.3141 59.3921 39.3141 60.1266V68.7073H51.7938V60.1266C51.7938 59.3921 52.376 58.7959 53.0934 58.7959C53.8108 58.7959 54.393 59.3921 54.393 60.1266V70.0381C54.393 70.7726 53.8108 71.3688 53.0934 71.3688Z" fill="white"/>
<path d="M79.6131 53.1589H22.7957C22.0783 53.1589 21.4961 52.5628 21.4961 51.8282C21.4961 51.0936 22.0783 50.4974 22.7957 50.4974H79.6131C80.3305 50.4974 80.9127 51.0936 80.9127 51.8282C80.9127 52.5628 80.3305 53.1589 79.6131 53.1589Z" fill="white"/>
<path d="M77.2015 48.7338C73.1554 48.7338 68.2064 48.7303 63.1813 48.7267C57.5063 48.7232 51.7325 48.7196 47.0505 48.7196C46.8113 48.7196 46.5687 48.7232 46.3261 48.7267C43.5918 48.7622 40.1937 48.8083 36.9949 44.4009C35.6364 42.529 29.4208 42.5237 27.0555 42.5237H27.0121C26.2601 42.5237 24.2743 42.5166 22.2902 42.5112C20.3096 42.5041 18.329 42.4988 17.577 42.4988C16.8249 42.4988 16.2773 41.9026 16.2773 41.1681V35.4068C16.2773 34.6722 16.8596 34.0761 17.577 34.0761C18.2943 34.0761 20.3096 34.069 22.2902 34.0636C24.2743 34.0565 26.2601 34.0512 27.0121 34.0512H27.0555C29.419 34.0512 35.6347 34.0459 36.9949 32.174C40.1937 27.7665 43.5935 27.8127 46.3261 27.8482C46.5687 27.8517 46.8113 27.8553 47.0505 27.8553C51.7291 27.8553 57.4976 27.8517 63.1691 27.8482C68.1995 27.8446 73.1536 27.8411 77.2032 27.8411C77.8426 27.8411 78.4439 28.093 78.8979 28.5526C79.3554 29.0157 79.6066 29.6331 79.6066 30.2896V46.2835C79.6066 46.94 79.3554 47.5574 78.8979 48.0205C78.4439 48.4801 77.8426 48.732 77.2032 48.732L77.2015 48.7338ZM47.0487 46.0581C51.7325 46.0581 57.5063 46.0617 63.1813 46.0652C68.1267 46.0688 72.9977 46.0705 77.0057 46.0723V30.5026C72.9925 30.5026 68.118 30.5061 63.1691 30.5097C57.4976 30.5132 51.7291 30.5168 47.0487 30.5168C46.7975 30.5168 46.5445 30.5132 46.2897 30.5097C43.7113 30.4742 41.4846 30.4458 39.0778 33.7602C37.1006 36.4838 31.8259 36.7109 27.0364 36.7109H27.0104C26.2584 36.7109 24.2778 36.718 22.2972 36.7234C21.0565 36.7269 19.8158 36.7305 18.8748 36.734V39.8391C19.814 39.8409 21.0547 39.8462 22.2972 39.8497C24.2778 39.8568 26.2601 39.8622 27.0104 39.8622H27.0364C31.8259 39.8622 37.1023 40.091 39.0795 42.8129C41.4864 46.1273 43.7113 46.0989 46.2915 46.0634C46.5462 46.0599 46.7992 46.0564 47.0505 46.0564L47.0487 46.0581Z" fill="white"/>
<path d="M25.2723 39.486C24.5549 39.486 23.9727 38.8899 23.9727 38.1553V35.3856C23.9727 34.651 24.5549 34.0548 25.2723 34.0548C25.9897 34.0548 26.5719 34.651 26.5719 35.3856V38.1553C26.5719 38.8899 25.9897 39.486 25.2723 39.486Z" fill="white"/>
<path d="M69.3708 43.5262H54.2918C53.5744 43.5262 52.9922 42.93 52.9922 42.1954V32.284C52.9922 31.5494 53.5744 30.9532 54.2918 30.9532C55.0092 30.9532 55.5914 31.5494 55.5914 32.284V40.8647H68.0712V32.284C68.0712 31.5494 68.6534 30.9532 69.3708 30.9532C70.0882 30.9532 70.6704 31.5494 70.6704 32.284V42.1954C70.6704 42.93 70.0882 43.5262 69.3708 43.5262Z" fill="white"/>
</g>
<defs>
<clipPath id="clip0_420_498">
<rect width="95" height="81" fill="white"/>
</clipPath>
</defs>
</svg>
