<svg width="80" height="82" viewBox="0 0 80 82" fill="none" xmlns="http://www.w3.org/2000/svg">
<g clip-path="url(#clip0_420_493)">
<path d="M40.0005 63.8702C37.2582 63.8702 34.8476 61.373 34.7956 58.5018L31.6094 35.2126C31.601 35.1548 31.5977 35.0953 31.5977 35.0375C31.5977 30.3831 35.2094 26.8727 40.0005 26.8727C44.7917 26.8727 48.4034 30.3831 48.4034 35.0375C48.4034 35.0953 48.4001 35.1548 48.3917 35.2126L45.2054 58.5018C45.1535 61.373 42.7446 63.8702 40.0005 63.8702ZM34.1105 34.9542L37.2951 58.2315C37.3034 58.2893 37.3068 58.3488 37.3068 58.4066C37.3068 60.047 38.7542 61.3186 39.9989 61.3186C41.2436 61.3186 42.6909 60.047 42.6909 58.4066C42.6909 58.3488 42.6943 58.2893 42.7027 58.2315L45.8873 34.9542C45.8454 31.7447 43.3811 29.4243 39.9972 29.4243C36.6133 29.4243 34.1507 31.7447 34.1071 34.9542H34.1105Z" fill="white"/>
<path d="M67.3963 69.6652C67.2388 69.6652 67.0813 69.6346 66.9305 69.5734L49.8082 62.6241L50.7413 60.2561L65.1665 66.1107L59.0537 50.3029C58.8158 49.6858 59.0822 48.9855 59.6685 48.6931L75.6936 40.6915L59.7439 34.0158C59.1224 33.7557 58.8124 33.0434 59.042 32.4026L65.2403 15.0802L48.86 21.9938C48.2267 22.2607 47.4997 21.9632 47.225 21.3257L40.0014 4.47084L32.7779 21.3257C32.5048 21.9632 31.7761 22.2624 31.1429 21.9938L14.7626 15.0802L20.9609 32.4026C21.1904 33.0451 20.8805 33.7557 20.259 34.0158L4.30925 40.6915L20.3344 48.6931C20.9207 48.9855 21.1887 49.6858 20.9492 50.3029L14.8363 66.1107L29.2616 60.2561L30.1947 62.6241L13.0723 69.5734C12.6066 69.7621 12.0756 69.6516 11.7204 69.2947C11.3653 68.936 11.253 68.3971 11.4356 67.9245L18.1884 50.4644L0.70251 41.7335C0.258577 41.5125 -0.0144832 41.0485 0.0005938 40.547C0.017346 40.0455 0.32056 39.6018 0.777895 39.4097L18.1868 32.1238L11.4222 13.2238C11.2514 12.7479 11.3753 12.2158 11.7355 11.8673C12.0957 11.5188 12.6267 11.4185 13.0857 11.6123L30.9636 19.1583L38.8489 0.766673C39.0482 0.300889 39.5005 0 40.0014 0C40.5023 0 40.9546 0.300889 41.154 0.766673L49.0376 19.16L66.9155 11.614C67.3745 11.4202 67.9055 11.5205 68.2657 11.869C68.6259 12.2192 68.7482 12.7513 68.579 13.2255L61.8161 32.1255L79.225 39.4114C79.6823 39.6018 79.9855 40.0472 80.0023 40.5487C80.019 41.0502 79.7443 41.5142 79.3004 41.7352L61.8161 50.4644L68.5689 67.9245C68.7515 68.3971 68.6409 68.936 68.2841 69.2947C68.0446 69.536 67.7246 69.6652 67.3979 69.6652H67.3963Z" fill="white"/>
<path d="M40.0022 82C36.3535 82 33.3867 78.9877 33.3867 75.2869C33.3867 71.5861 36.3552 68.5739 40.0022 68.5739C43.6491 68.5739 46.6176 71.5861 46.6176 75.2869C46.6176 78.9877 43.6491 82 40.0022 82ZM40.0022 71.1221C37.7389 71.1221 35.8995 72.9903 35.8995 75.2852C35.8995 77.5801 37.7406 79.4484 40.0022 79.4484C42.2637 79.4484 44.1048 77.5801 44.1048 75.2852C44.1048 72.9903 42.2637 71.1221 40.0022 71.1221Z" fill="white"/>
</g>
<defs>
<clipPath id="clip0_420_493">
<rect width="80" height="82" fill="white"/>
</clipPath>
</defs>
</svg>
