<svg width="84" height="83" viewBox="0 0 84 83" fill="none" xmlns="http://www.w3.org/2000/svg">
<g clip-path="url(#clip0_420_515)">
<path d="M82.4358 51.7789L82.0825 52.0223C78.9044 54.2068 75.7194 56.5363 72.6133 58.9435C71.543 59.5928 71.2583 59.313 71.1486 59.1818C70.056 57.5775 68.485 55.2014 66.4766 52.1139C71.1331 46.4084 73.6938 39.2404 73.6938 31.891C73.6938 23.5521 70.3562 15.4032 64.5213 9.45947L64.5539 9.43011L63.4476 8.40265C57.8546 3.21008 50.5499 0.234753 42.8833 0.0223529C40.2814 -0.0743495 37.7705 0.151865 35.4294 0.694089C29.5207 1.94086 24.257 4.77631 19.7805 9.11928L19.453 9.43702L19.477 9.45947C13.6438 15.4032 10.3062 23.5504 10.3062 31.891C10.3062 39.2369 12.8617 46.4015 17.508 52.1018C15.503 55.2083 13.932 57.5931 12.8394 59.1973C12.8034 59.2491 12.7348 59.3234 12.5547 59.351C12.2271 59.4063 11.7863 59.2543 11.4039 58.9573C8.28234 56.5363 5.09049 54.2033 1.91751 52.0223L1.56419 51.7789L0 54.0842L0.353316 54.3276C3.49714 56.4896 6.6444 58.7915 9.70761 61.1676C10.524 61.8031 11.4879 62.1536 12.4209 62.1536C12.6079 62.1536 12.7983 62.1381 12.9869 62.1087C13.8754 61.9689 14.6335 61.4957 15.1223 60.7774C15.2835 60.5408 15.455 60.2869 15.6317 60.0227C16.1874 60.5391 16.9077 61.292 17.2645 62.0172C17.4257 62.3453 17.5337 62.5853 17.6452 62.8375L17.6641 62.8806C17.3176 63.1483 17.0381 63.428 16.8151 63.732C15.2921 65.8024 15.7277 68.7346 17.7841 70.268L17.9436 70.3889C18.8304 71.0658 19.8732 71.3611 21.0463 71.2713C21.0532 71.3594 21.0617 71.4492 21.0755 71.5407C21.2641 72.803 21.9279 73.9151 22.9432 74.6731C23.9757 75.4485 25.166 75.7369 26.4901 75.5348C26.6668 76.8058 27.3254 77.9386 28.3425 78.6967C29.1657 79.3097 30.1416 79.6343 31.1621 79.6343C31.452 79.6343 31.747 79.6015 32.0626 79.5307C32.2478 80.5288 32.8001 81.4043 33.7177 82.1451C34.4672 82.7046 35.3556 82.9999 36.2852 82.9999C37.4429 82.9999 38.5457 82.5233 39.3621 81.6789C40.0756 82.064 40.8629 82.266 41.6604 82.266C43.2812 82.266 44.7939 81.4665 45.7098 80.1247C46.1317 79.5065 46.4027 78.8072 46.5091 78.0681L47.027 78.4411L47.0476 78.4549C48.1299 79.1439 49.4454 79.4392 50.6511 79.2631C51.982 79.0696 53.1209 78.3219 53.8498 77.1701C54.2769 76.545 54.5479 75.8353 54.6525 75.0876C56.8873 76.3119 59.5457 75.7231 61.1065 73.5956C61.5318 72.9722 61.8028 72.2659 61.9075 71.52C62.9828 72.2452 64.2881 72.5042 65.5881 72.2487C66.8693 71.9966 67.9996 71.2558 68.6856 70.2179C69.4266 69.13 69.7027 67.8176 69.4626 66.5225C69.2242 65.2257 68.4953 64.0998 67.4113 63.3503L52.6887 53.3123H49.7455C47.8932 53.3123 46.4953 52.7131 45.588 51.5285C44.8986 50.6271 44.7528 49.6963 44.7476 49.6652L44.5864 48.453H33.9046L33.7057 49.6117C33.3232 51.841 32.5754 53.3157 31.4846 53.9961C31.1227 54.2223 30.7196 54.357 30.2805 54.4019V48.434L37.5561 44.3449H58.1565C59.6606 46.6985 65.7648 56.2272 68.8657 60.7739C69.3562 61.4923 70.1161 61.9654 71.0045 62.1036C72.1004 62.2762 73.2942 61.9326 74.2821 61.1642C77.3436 58.7881 80.4926 56.4862 83.6381 54.3225L83.9914 54.079L82.4272 51.7737L82.4358 51.7789ZM56.016 33.2845C55.9508 36.1182 55.6833 38.8967 55.2219 41.556H43.3875V33.2845H56.0177H56.016ZM70.8587 33.2845C70.5757 39.2732 68.5158 44.9095 64.8781 49.6479L59.6778 41.556H58.0296C58.4703 38.8794 58.7259 36.101 58.7876 33.2845H70.857H70.8587ZM58.7996 30.4922C58.683 25.0976 57.8803 19.8843 56.4688 15.3618C58.5527 14.2808 60.5594 12.92 62.4391 11.3106C67.473 16.3858 70.5277 23.3311 70.8758 30.4905H58.7996V30.4922ZM43.3858 18.8172C47.0236 18.6583 50.5585 17.8864 53.9064 16.5187C55.1824 20.7288 55.9114 25.5397 56.0263 30.494H43.3858V18.8172ZM55.5306 12.6817C54.1362 9.11238 52.3491 6.14741 50.3012 3.99233C53.8138 5.00253 57.1977 6.83642 60.3724 9.45084C58.9094 10.6631 57.2852 11.7475 55.5306 12.6817ZM43.3858 16.0249V2.9217C47.1488 3.70222 50.6219 7.64803 53.006 13.8715C49.9445 15.1425 46.7114 15.8643 43.3858 16.0231V16.0249ZM40.6142 33.2845V41.556H28.7781C28.3167 38.8984 28.0509 36.12 27.984 33.2845H40.6142ZM13.1241 30.4922C13.4723 23.3328 16.5252 16.3875 21.5591 11.3124C23.4406 12.9218 25.4456 14.2825 27.5312 15.3635C26.1214 19.8843 25.317 25.0976 25.2003 30.4922H13.1241ZM24.2364 41.556L19.1014 49.622C15.4773 44.8888 13.4243 39.2611 13.1413 33.2845H25.2106C25.2741 36.1027 25.5279 38.8794 25.9687 41.556H24.2364ZM27.5158 46.797V56.6917L28.4814 57.0025C28.574 57.0319 30.7659 57.7088 32.9098 56.3998C34.4895 55.4345 35.5974 53.7025 36.2063 51.2487H42.307C42.5917 52.05 43.2023 53.295 44.4423 54.3397C45.8367 55.514 47.6239 56.108 49.7524 56.108H51.8431L65.854 65.6608C66.3222 65.9837 66.6378 66.4724 66.7424 67.0354C66.8453 67.5931 66.7287 68.1578 66.4148 68.6258C65.5555 69.6757 64.4441 69.8881 63.4374 69.1887L59.8785 66.7591L49.3956 59.5133L47.8246 61.8152L58.2748 69.0385C59.2421 69.7085 59.4891 71.0451 58.8254 72.019C58.5029 72.4904 58.0176 72.8082 57.4584 72.9135C56.9027 73.0188 56.3367 72.898 55.8668 72.5733L45.4182 65.35L45.3325 65.4743L45.2862 65.445L43.7563 67.7727L51.0181 72.613C51.9803 73.2779 52.229 74.6041 51.579 75.5763C50.7197 76.6037 49.7747 76.785 48.6084 76.1461L41.7805 71.2454L40.17 73.5196L42.578 75.2482L42.5248 75.3259L42.8781 75.5694C43.3464 75.8923 43.6619 76.381 43.7666 76.9439C43.8712 77.5069 43.7511 78.0767 43.4287 78.5481C42.8421 79.4098 41.7479 79.7051 40.8251 79.2941C40.9966 78.6932 41.0395 78.0888 40.9503 77.4896C40.7805 76.3395 40.1751 75.3276 39.2472 74.6369C38.8099 74.3105 38.2988 74.0774 37.7465 73.9479L37.7688 73.9168C39.3227 71.7997 38.8785 68.8019 36.7757 67.2374L36.7603 67.2271C35.0692 66.0753 33.3335 65.9924 31.5978 66.9749C31.2685 66.1789 30.7453 65.502 30.0559 64.9874C28.4179 63.8459 26.6976 63.7561 24.9345 64.7162C24.6103 63.9858 24.1129 63.359 23.4749 62.8841L23.3103 62.7615C22.5042 62.1623 21.5506 61.8445 20.5506 61.8445C20.446 61.8445 20.3448 61.8549 20.2505 61.867C20.2248 61.8117 20.2007 61.7565 20.1767 61.7029C20.0567 61.4318 19.9315 61.1521 19.7497 60.7808C19.1545 59.5703 18.0809 58.4651 17.189 57.6846C20.3054 52.9462 24.3754 46.5362 25.756 44.3518H31.8722L27.514 46.8004L27.5158 46.797ZM29.2223 75.1515C29.1451 74.6265 29.2738 74.1033 29.5859 73.6785L31.0592 71.6771L31.0867 71.6357L32.3679 69.8933C32.7435 69.3821 33.3232 69.0886 33.9543 69.0886C34.378 69.0886 34.7827 69.2233 35.1241 69.4788C35.546 69.7931 35.8221 70.2559 35.901 70.7809C35.9799 71.3058 35.8496 71.8291 35.5374 72.2539L32.7538 76.0391C32.1277 76.8887 30.8397 77.0821 29.9958 76.4535C29.5739 76.1392 29.2978 75.6764 29.2206 75.1515H29.2223ZM19.0482 65.3949C19.3998 64.9183 19.9366 64.6403 20.5266 64.6316C21.6981 64.8009 22.3481 65.3535 22.5676 66.3706C22.6156 66.7073 22.5676 67.0544 22.4304 67.3738L22.4218 67.3963C22.2469 67.8798 21.873 68.2373 21.3687 68.4013C20.7839 68.5912 20.103 68.4894 19.6039 68.1475L19.4409 68.0249C18.6125 67.4066 18.4376 66.2255 19.0499 65.3932L19.0482 65.3949ZM24.1198 69.7724C24.1455 69.7465 24.1713 69.7206 24.197 69.6947C24.2759 69.617 24.3668 69.5272 24.4474 69.4167C24.6018 69.206 24.7235 68.985 24.8213 68.7933L25.6617 67.6501C26.0373 67.139 26.617 66.8454 27.2482 66.8454C27.6718 66.8454 28.0766 66.9801 28.4196 67.2357C29.2909 67.885 29.4779 69.1283 28.8364 70.0055L27.3597 72.0156C26.7337 72.8652 25.4456 73.0586 24.6018 72.4283C24.1781 72.1123 23.902 71.6512 23.8265 71.1262C23.7562 70.6514 23.8574 70.1834 24.1215 69.769L24.1198 69.7724ZM35.0606 77.7106L35.4345 77.2029C35.7295 76.8023 36.184 76.5709 36.6797 76.5709C37.0124 76.5709 37.3297 76.6763 37.599 76.8783C37.93 77.1235 38.1478 77.4879 38.2079 77.8989C38.2679 78.3116 38.1667 78.7226 37.9214 79.0558L37.539 79.5773C37.0553 80.237 36.0588 80.3924 35.395 79.9175C34.6575 79.2043 34.5546 78.5222 35.0606 77.7106ZM40.6142 18.8172V30.494H27.9737C28.0886 25.5397 28.8193 20.7288 30.0936 16.5205C33.4415 17.8881 36.9764 18.66 40.6142 18.8189V18.8172ZM23.5727 9.40594C24.7081 8.42165 29.0817 5.28573 33.7228 3.9647C31.6646 6.12151 29.8689 9.09684 28.4677 12.6817C26.6908 11.7354 25.0477 10.6354 23.571 9.40594H23.5727ZM40.6142 2.9217V16.0249C37.2885 15.866 34.0555 15.1425 30.994 13.8732C33.3781 7.64975 36.8495 3.70395 40.6142 2.92342V2.9217Z" fill="white"/>
<path d="M72.2538 54.0066L70.0039 55.6392L71.6254 57.9044L73.8754 56.2719L72.2538 54.0066Z" fill="white"/>
<path d="M11.9486 53.8807L10.2305 56.0726L12.4075 57.8025L14.1256 55.6105L11.9486 53.8807Z" fill="white"/>
</g>
<defs>
<clipPath id="clip0_420_515">
<rect width="84" height="83" fill="white"/>
</clipPath>
</defs>
</svg>
